<svg width="267" height="200" viewBox="0 0 267 200" fill="none" xmlns="http://www.w3.org/2000/svg">
<g clip-path="url(#clip0_2902_6992)">
<g filter="url(#filter0_f_2902_6992)">
<ellipse cx="193" cy="100" rx="13" ry="11" fill="#FF0099"/>
</g>
<g filter="url(#filter1_f_2902_6992)">
<ellipse cx="94" cy="58" rx="17" ry="11" fill="#FF0000"/>
</g>
<g clip-path="url(#clip1_2902_6992)">
<rect x="105" y="104" width="1" height="1" fill="#FBD5D8"/>
<rect x="105" y="109" width="1" height="1" fill="#FBD5D8"/>
<rect x="105" y="114" width="1" height="1" fill="#FBD5D8"/>
<rect x="105" y="119" width="1" height="1" fill="#FBD5D8"/>
<rect x="105" y="124" width="1" height="1" fill="#FBD5D8"/>
<rect x="105" y="129" width="1" height="1" fill="#FBD5D8"/>
<rect x="105" y="134" width="1" height="1" fill="#FBD5D8"/>
<rect x="105" y="139" width="1" height="1" fill="#FBD5D8"/>
<rect x="105" y="144" width="1" height="1" fill="#FBD5D8"/>
<rect x="105" y="149" width="1" height="1" fill="#FBD5D8"/>
<rect x="105" y="154" width="1" height="1" fill="#FBD5D8"/>
<rect x="105" y="159" width="1" height="1" fill="#FBD5D8"/>
<rect x="105" y="164" width="1" height="1" fill="#FBD5D8"/>
<rect x="105" y="169" width="1" height="1" fill="#FBD5D8"/>
<rect x="105" y="174" width="1" height="1" fill="#FBD5D8"/>
<rect x="105" y="179" width="1" height="1" fill="#FBD5D8"/>
</g>
<g clip-path="url(#clip2_2902_6992)">
<rect x="110" y="104" width="1" height="1" fill="#FBD5D8"/>
<rect x="110" y="109" width="1" height="1" fill="#FBD5D8"/>
<rect x="110" y="114" width="1" height="1" fill="#FBD5D8"/>
<rect x="110" y="119" width="1" height="1" fill="#FBD5D8"/>
<rect x="110" y="124" width="1" height="1" fill="#FBD5D8"/>
<rect x="110" y="129" width="1" height="1" fill="#FBD5D8"/>
<rect x="110" y="134" width="1" height="1" fill="#FBD5D8"/>
<rect x="110" y="139" width="1" height="1" fill="#FBD5D8"/>
<rect x="110" y="144" width="1" height="1" fill="#FBD5D8"/>
<rect x="110" y="149" width="1" height="1" fill="#FBD5D8"/>
<rect x="110" y="154" width="1" height="1" fill="#FBD5D8"/>
<rect x="110" y="159" width="1" height="1" fill="#FBD5D8"/>
<rect x="110" y="164" width="1" height="1" fill="#FBD5D8"/>
<rect x="110" y="169" width="1" height="1" fill="#FBD5D8"/>
<rect x="110" y="174" width="1" height="1" fill="#FBD5D8"/>
<rect x="110" y="179" width="1" height="1" fill="#FBD5D8"/>
</g>
<g clip-path="url(#clip3_2902_6992)">
<rect x="115" y="104" width="1" height="1" fill="#FBD5D8"/>
<rect x="115" y="109" width="1" height="1" fill="#FBD5D8"/>
<rect x="115" y="114" width="1" height="1" fill="#FBD5D8"/>
<rect x="115" y="119" width="1" height="1" fill="#FBD5D8"/>
<rect x="115" y="124" width="1" height="1" fill="#FBD5D8"/>
<rect x="115" y="129" width="1" height="1" fill="#FBD5D8"/>
<rect x="115" y="134" width="1" height="1" fill="#FBD5D8"/>
<rect x="115" y="139" width="1" height="1" fill="#FBD5D8"/>
<rect x="115" y="144" width="1" height="1" fill="#FBD5D8"/>
<rect x="115" y="149" width="1" height="1" fill="#FBD5D8"/>
<rect x="115" y="154" width="1" height="1" fill="#FBD5D8"/>
<rect x="115" y="159" width="1" height="1" fill="#FBD5D8"/>
<rect x="115" y="164" width="1" height="1" fill="#FBD5D8"/>
<rect x="115" y="169" width="1" height="1" fill="#FBD5D8"/>
<rect x="115" y="174" width="1" height="1" fill="#FBD5D8"/>
<rect x="115" y="179" width="1" height="1" fill="#FBD5D8"/>
</g>
<g clip-path="url(#clip4_2902_6992)">
<rect x="120" y="104" width="1" height="1" fill="#FBD5D8"/>
<rect x="120" y="109" width="1" height="1" fill="#FBD5D8"/>
<rect x="120" y="114" width="1" height="1" fill="#FBD5D8"/>
<rect x="120" y="119" width="1" height="1" fill="#FBD5D8"/>
<rect x="120" y="124" width="1" height="1" fill="#FBD5D8"/>
<rect x="120" y="129" width="1" height="1" fill="#FBD5D8"/>
<rect x="120" y="134" width="1" height="1" fill="#FBD5D8"/>
<rect x="120" y="139" width="1" height="1" fill="#FBD5D8"/>
<rect x="120" y="144" width="1" height="1" fill="#FBD5D8"/>
<rect x="120" y="149" width="1" height="1" fill="#FBD5D8"/>
<rect x="120" y="154" width="1" height="1" fill="#FBD5D8"/>
<rect x="120" y="159" width="1" height="1" fill="#FBD5D8"/>
<rect x="120" y="164" width="1" height="1" fill="#FBD5D8"/>
<rect x="120" y="169" width="1" height="1" fill="#FBD5D8"/>
<rect x="120" y="174" width="1" height="1" fill="#FBD5D8"/>
<rect x="120" y="179" width="1" height="1" fill="#FBD5D8"/>
</g>
<g clip-path="url(#clip5_2902_6992)">
<rect x="125" y="104" width="1" height="1" fill="#FBD5D8"/>
<rect x="125" y="109" width="1" height="1" fill="#FBD5D8"/>
<rect x="125" y="114" width="1" height="1" fill="#FBD5D8"/>
<rect x="125" y="119" width="1" height="1" fill="#FBD5D8"/>
<rect x="125" y="124" width="1" height="1" fill="#FBD5D8"/>
<rect x="125" y="129" width="1" height="1" fill="#FBD5D8"/>
<rect x="125" y="134" width="1" height="1" fill="#FBD5D8"/>
<rect x="125" y="139" width="1" height="1" fill="#FBD5D8"/>
<rect x="125" y="144" width="1" height="1" fill="#FBD5D8"/>
<rect x="125" y="149" width="1" height="1" fill="#FBD5D8"/>
<rect x="125" y="154" width="1" height="1" fill="#FBD5D8"/>
<rect x="125" y="159" width="1" height="1" fill="#FBD5D8"/>
<rect x="125" y="164" width="1" height="1" fill="#FBD5D8"/>
<rect x="125" y="169" width="1" height="1" fill="#FBD5D8"/>
<rect x="125" y="174" width="1" height="1" fill="#FBD5D8"/>
<rect x="125" y="179" width="1" height="1" fill="#FBD5D8"/>
</g>
<g clip-path="url(#clip6_2902_6992)">
<rect x="130" y="104" width="1" height="1" fill="#FBD5D8"/>
<rect x="130" y="109" width="1" height="1" fill="#FBD5D8"/>
<rect x="130" y="114" width="1" height="1" fill="#FBD5D8"/>
<rect x="130" y="119" width="1" height="1" fill="#FBD5D8"/>
<rect x="130" y="124" width="1" height="1" fill="#FBD5D8"/>
<rect x="130" y="129" width="1" height="1" fill="#FBD5D8"/>
<rect x="130" y="134" width="1" height="1" fill="#FBD5D8"/>
<rect x="130" y="139" width="1" height="1" fill="#FBD5D8"/>
<rect x="130" y="144" width="1" height="1" fill="#FBD5D8"/>
<rect x="130" y="149" width="1" height="1" fill="#FBD5D8"/>
<rect x="130" y="154" width="1" height="1" fill="#FBD5D8"/>
<rect x="130" y="159" width="1" height="1" fill="#FBD5D8"/>
<rect x="130" y="164" width="1" height="1" fill="#FBD5D8"/>
<rect x="130" y="169" width="1" height="1" fill="#FBD5D8"/>
<rect x="130" y="174" width="1" height="1" fill="#FBD5D8"/>
<rect x="130" y="179" width="1" height="1" fill="#FBD5D8"/>
</g>
<g clip-path="url(#clip7_2902_6992)">
<rect x="135" y="104" width="1" height="1" fill="#FBD5D8"/>
<rect x="135" y="109" width="1" height="1" fill="#FBD5D8"/>
<rect x="135" y="114" width="1" height="1" fill="#FBD5D8"/>
<rect x="135" y="119" width="1" height="1" fill="#FBD5D8"/>
<rect x="135" y="124" width="1" height="1" fill="#FBD5D8"/>
<rect x="135" y="129" width="1" height="1" fill="#FBD5D8"/>
<rect x="135" y="134" width="1" height="1" fill="#FBD5D8"/>
<rect x="135" y="139" width="1" height="1" fill="#FBD5D8"/>
<rect x="135" y="144" width="1" height="1" fill="#FBD5D8"/>
<rect x="135" y="149" width="1" height="1" fill="#FBD5D8"/>
<rect x="135" y="154" width="1" height="1" fill="#FBD5D8"/>
<rect x="135" y="159" width="1" height="1" fill="#FBD5D8"/>
<rect x="135" y="164" width="1" height="1" fill="#FBD5D8"/>
<rect x="135" y="169" width="1" height="1" fill="#FBD5D8"/>
<rect x="135" y="174" width="1" height="1" fill="#FBD5D8"/>
<rect x="135" y="179" width="1" height="1" fill="#FBD5D8"/>
</g>
<g clip-path="url(#clip8_2902_6992)">
<rect x="140" y="104" width="1" height="1" fill="#FBD5D8"/>
<rect x="140" y="109" width="1" height="1" fill="#FBD5D8"/>
<rect x="140" y="114" width="1" height="1" fill="#FBD5D8"/>
<rect x="140" y="119" width="1" height="1" fill="#FBD5D8"/>
<rect x="140" y="124" width="1" height="1" fill="#FBD5D8"/>
<rect x="140" y="129" width="1" height="1" fill="#FBD5D8"/>
<rect x="140" y="134" width="1" height="1" fill="#FBD5D8"/>
<rect x="140" y="139" width="1" height="1" fill="#FBD5D8"/>
<rect x="140" y="144" width="1" height="1" fill="#FBD5D8"/>
<rect x="140" y="149" width="1" height="1" fill="#FBD5D8"/>
<rect x="140" y="154" width="1" height="1" fill="#FBD5D8"/>
<rect x="140" y="159" width="1" height="1" fill="#FBD5D8"/>
<rect x="140" y="164" width="1" height="1" fill="#FBD5D8"/>
<rect x="140" y="169" width="1" height="1" fill="#FBD5D8"/>
<rect x="140" y="174" width="1" height="1" fill="#FBD5D8"/>
<rect x="140" y="179" width="1" height="1" fill="#FBD5D8"/>
</g>
<g clip-path="url(#clip9_2902_6992)">
<rect x="145" y="104" width="1" height="1" fill="#FBD5D8"/>
<rect x="145" y="109" width="1" height="1" fill="#FBD5D8"/>
<rect x="145" y="114" width="1" height="1" fill="#FBD5D8"/>
<rect x="145" y="119" width="1" height="1" fill="#FBD5D8"/>
<rect x="145" y="124" width="1" height="1" fill="#FBD5D8"/>
<rect x="145" y="129" width="1" height="1" fill="#FBD5D8"/>
<rect x="145" y="134" width="1" height="1" fill="#FBD5D8"/>
<rect x="145" y="139" width="1" height="1" fill="#FBD5D8"/>
<rect x="145" y="144" width="1" height="1" fill="#FBD5D8"/>
<rect x="145" y="149" width="1" height="1" fill="#FBD5D8"/>
<rect x="145" y="154" width="1" height="1" fill="#FBD5D8"/>
<rect x="145" y="159" width="1" height="1" fill="#FBD5D8"/>
<rect x="145" y="164" width="1" height="1" fill="#FBD5D8"/>
<rect x="145" y="169" width="1" height="1" fill="#FBD5D8"/>
<rect x="145" y="174" width="1" height="1" fill="#FBD5D8"/>
<rect x="145" y="179" width="1" height="1" fill="#FBD5D8"/>
</g>
<g clip-path="url(#clip10_2902_6992)">
<rect x="150" y="104" width="1" height="1" fill="#FBD5D8"/>
<rect x="150" y="109" width="1" height="1" fill="#FBD5D8"/>
<rect x="150" y="114" width="1" height="1" fill="#FBD5D8"/>
<rect x="150" y="119" width="1" height="1" fill="#FBD5D8"/>
<rect x="150" y="124" width="1" height="1" fill="#FBD5D8"/>
<rect x="150" y="129" width="1" height="1" fill="#FBD5D8"/>
<rect x="150" y="134" width="1" height="1" fill="#FBD5D8"/>
<rect x="150" y="139" width="1" height="1" fill="#FBD5D8"/>
<rect x="150" y="144" width="1" height="1" fill="#FBD5D8"/>
<rect x="150" y="149" width="1" height="1" fill="#FBD5D8"/>
<rect x="150" y="154" width="1" height="1" fill="#FBD5D8"/>
<rect x="150" y="159" width="1" height="1" fill="#FBD5D8"/>
<rect x="150" y="164" width="1" height="1" fill="#FBD5D8"/>
<rect x="150" y="169" width="1" height="1" fill="#FBD5D8"/>
<rect x="150" y="174" width="1" height="1" fill="#FBD5D8"/>
<rect x="150" y="179" width="1" height="1" fill="#FBD5D8"/>
</g>
<g clip-path="url(#clip11_2902_6992)">
<rect x="155" y="104" width="1" height="1" fill="#FBD5D8"/>
<rect x="155" y="109" width="1" height="1" fill="#FBD5D8"/>
<rect x="155" y="114" width="1" height="1" fill="#FBD5D8"/>
<rect x="155" y="119" width="1" height="1" fill="#FBD5D8"/>
<rect x="155" y="124" width="1" height="1" fill="#FBD5D8"/>
<rect x="155" y="129" width="1" height="1" fill="#FBD5D8"/>
<rect x="155" y="134" width="1" height="1" fill="#FBD5D8"/>
<rect x="155" y="139" width="1" height="1" fill="#FBD5D8"/>
<rect x="155" y="144" width="1" height="1" fill="#FBD5D8"/>
<rect x="155" y="149" width="1" height="1" fill="#FBD5D8"/>
<rect x="155" y="154" width="1" height="1" fill="#FBD5D8"/>
<rect x="155" y="159" width="1" height="1" fill="#FBD5D8"/>
<rect x="155" y="164" width="1" height="1" fill="#FBD5D8"/>
<rect x="155" y="169" width="1" height="1" fill="#FBD5D8"/>
<rect x="155" y="174" width="1" height="1" fill="#FBD5D8"/>
<rect x="155" y="179" width="1" height="1" fill="#FBD5D8"/>
</g>
<g clip-path="url(#clip12_2902_6992)">
<rect x="160" y="104" width="1" height="1" fill="#FBD5D8"/>
<rect x="160" y="109" width="1" height="1" fill="#FBD5D8"/>
<rect x="160" y="114" width="1" height="1" fill="#FBD5D8"/>
<rect x="160" y="119" width="1" height="1" fill="#FBD5D8"/>
<rect x="160" y="124" width="1" height="1" fill="#FBD5D8"/>
<rect x="160" y="129" width="1" height="1" fill="#FBD5D8"/>
<rect x="160" y="134" width="1" height="1" fill="#FBD5D8"/>
<rect x="160" y="139" width="1" height="1" fill="#FBD5D8"/>
<rect x="160" y="144" width="1" height="1" fill="#FBD5D8"/>
<rect x="160" y="149" width="1" height="1" fill="#FBD5D8"/>
<rect x="160" y="154" width="1" height="1" fill="#FBD5D8"/>
<rect x="160" y="159" width="1" height="1" fill="#FBD5D8"/>
<rect x="160" y="164" width="1" height="1" fill="#FBD5D8"/>
<rect x="160" y="169" width="1" height="1" fill="#FBD5D8"/>
<rect x="160" y="174" width="1" height="1" fill="#FBD5D8"/>
<rect x="160" y="179" width="1" height="1" fill="#FBD5D8"/>
</g>
<g clip-path="url(#clip13_2902_6992)">
<rect x="165" y="104" width="1" height="1" fill="#FBD5D8"/>
<rect x="165" y="109" width="1" height="1" fill="#FBD5D8"/>
<rect x="165" y="114" width="1" height="1" fill="#FBD5D8"/>
<rect x="165" y="119" width="1" height="1" fill="#FBD5D8"/>
<rect x="165" y="124" width="1" height="1" fill="#FBD5D8"/>
<rect x="165" y="129" width="1" height="1" fill="#FBD5D8"/>
<rect x="165" y="134" width="1" height="1" fill="#FBD5D8"/>
<rect x="165" y="139" width="1" height="1" fill="#FBD5D8"/>
<rect x="165" y="144" width="1" height="1" fill="#FBD5D8"/>
<rect x="165" y="149" width="1" height="1" fill="#FBD5D8"/>
<rect x="165" y="154" width="1" height="1" fill="#FBD5D8"/>
<rect x="165" y="159" width="1" height="1" fill="#FBD5D8"/>
<rect x="165" y="164" width="1" height="1" fill="#FBD5D8"/>
<rect x="165" y="169" width="1" height="1" fill="#FBD5D8"/>
<rect x="165" y="174" width="1" height="1" fill="#FBD5D8"/>
<rect x="165" y="179" width="1" height="1" fill="#FBD5D8"/>
</g>
<g clip-path="url(#clip14_2902_6992)">
<rect x="170" y="104" width="1" height="1" fill="#FBD5D8"/>
<rect x="170" y="109" width="1" height="1" fill="#FBD5D8"/>
<rect x="170" y="114" width="1" height="1" fill="#FBD5D8"/>
<rect x="170" y="119" width="1" height="1" fill="#FBD5D8"/>
<rect x="170" y="124" width="1" height="1" fill="#FBD5D8"/>
<rect x="170" y="129" width="1" height="1" fill="#FBD5D8"/>
<rect x="170" y="134" width="1" height="1" fill="#FBD5D8"/>
<rect x="170" y="139" width="1" height="1" fill="#FBD5D8"/>
<rect x="170" y="144" width="1" height="1" fill="#FBD5D8"/>
<rect x="170" y="149" width="1" height="1" fill="#FBD5D8"/>
<rect x="170" y="154" width="1" height="1" fill="#FBD5D8"/>
<rect x="170" y="159" width="1" height="1" fill="#FBD5D8"/>
<rect x="170" y="164" width="1" height="1" fill="#FBD5D8"/>
<rect x="170" y="169" width="1" height="1" fill="#FBD5D8"/>
<rect x="170" y="174" width="1" height="1" fill="#FBD5D8"/>
<rect x="170" y="179" width="1" height="1" fill="#FBD5D8"/>
</g>
<g clip-path="url(#clip15_2902_6992)">
<rect x="175" y="104" width="1" height="1" fill="#FBD5D8"/>
<rect x="175" y="109" width="1" height="1" fill="#FBD5D8"/>
<rect x="175" y="114" width="1" height="1" fill="#FBD5D8"/>
<rect x="175" y="119" width="1" height="1" fill="#FBD5D8"/>
<rect x="175" y="124" width="1" height="1" fill="#FBD5D8"/>
<rect x="175" y="129" width="1" height="1" fill="#FBD5D8"/>
<rect x="175" y="134" width="1" height="1" fill="#FBD5D8"/>
<rect x="175" y="139" width="1" height="1" fill="#FBD5D8"/>
<rect x="175" y="144" width="1" height="1" fill="#FBD5D8"/>
<rect x="175" y="149" width="1" height="1" fill="#FBD5D8"/>
<rect x="175" y="154" width="1" height="1" fill="#FBD5D8"/>
<rect x="175" y="159" width="1" height="1" fill="#FBD5D8"/>
<rect x="175" y="164" width="1" height="1" fill="#FBD5D8"/>
<rect x="175" y="169" width="1" height="1" fill="#FBD5D8"/>
<rect x="175" y="174" width="1" height="1" fill="#FBD5D8"/>
<rect x="175" y="179" width="1" height="1" fill="#FBD5D8"/>
</g>
<g clip-path="url(#clip16_2902_6992)">
<rect x="180" y="104" width="1" height="1" fill="#FBD5D8"/>
<rect x="180" y="109" width="1" height="1" fill="#FBD5D8"/>
<rect x="180" y="114" width="1" height="1" fill="#FBD5D8"/>
<rect x="180" y="119" width="1" height="1" fill="#FBD5D8"/>
<rect x="180" y="124" width="1" height="1" fill="#FBD5D8"/>
<rect x="180" y="129" width="1" height="1" fill="#FBD5D8"/>
<rect x="180" y="134" width="1" height="1" fill="#FBD5D8"/>
<rect x="180" y="139" width="1" height="1" fill="#FBD5D8"/>
<rect x="180" y="144" width="1" height="1" fill="#FBD5D8"/>
<rect x="180" y="149" width="1" height="1" fill="#FBD5D8"/>
<rect x="180" y="154" width="1" height="1" fill="#FBD5D8"/>
<rect x="180" y="159" width="1" height="1" fill="#FBD5D8"/>
<rect x="180" y="164" width="1" height="1" fill="#FBD5D8"/>
<rect x="180" y="169" width="1" height="1" fill="#FBD5D8"/>
<rect x="180" y="174" width="1" height="1" fill="#FBD5D8"/>
<rect x="180" y="179" width="1" height="1" fill="#FBD5D8"/>
</g>
<g clip-path="url(#clip17_2902_6992)">
<rect x="185" y="104" width="1" height="1" fill="#FBD5D8"/>
<rect x="185" y="109" width="1" height="1" fill="#FBD5D8"/>
<rect x="185" y="114" width="1" height="1" fill="#FBD5D8"/>
<rect x="185" y="119" width="1" height="1" fill="#FBD5D8"/>
<rect x="185" y="124" width="1" height="1" fill="#FBD5D8"/>
<rect x="185" y="129" width="1" height="1" fill="#FBD5D8"/>
<rect x="185" y="134" width="1" height="1" fill="#FBD5D8"/>
<rect x="185" y="139" width="1" height="1" fill="#FBD5D8"/>
<rect x="185" y="144" width="1" height="1" fill="#FBD5D8"/>
<rect x="185" y="149" width="1" height="1" fill="#FBD5D8"/>
<rect x="185" y="154" width="1" height="1" fill="#FBD5D8"/>
<rect x="185" y="159" width="1" height="1" fill="#FBD5D8"/>
<rect x="185" y="164" width="1" height="1" fill="#FBD5D8"/>
<rect x="185" y="169" width="1" height="1" fill="#FBD5D8"/>
<rect x="185" y="174" width="1" height="1" fill="#FBD5D8"/>
<rect x="185" y="179" width="1" height="1" fill="#FBD5D8"/>
</g>
<g clip-path="url(#clip18_2902_6992)">
<rect x="190" y="104" width="1" height="1" fill="#FBD5D8"/>
<rect x="190" y="109" width="1" height="1" fill="#FBD5D8"/>
<rect x="190" y="114" width="1" height="1" fill="#FBD5D8"/>
<rect x="190" y="119" width="1" height="1" fill="#FBD5D8"/>
<rect x="190" y="124" width="1" height="1" fill="#FBD5D8"/>
<rect x="190" y="129" width="1" height="1" fill="#FBD5D8"/>
<rect x="190" y="134" width="1" height="1" fill="#FBD5D8"/>
<rect x="190" y="139" width="1" height="1" fill="#FBD5D8"/>
<rect x="190" y="144" width="1" height="1" fill="#FBD5D8"/>
<rect x="190" y="149" width="1" height="1" fill="#FBD5D8"/>
<rect x="190" y="154" width="1" height="1" fill="#FBD5D8"/>
<rect x="190" y="159" width="1" height="1" fill="#FBD5D8"/>
<rect x="190" y="164" width="1" height="1" fill="#FBD5D8"/>
<rect x="190" y="169" width="1" height="1" fill="#FBD5D8"/>
<rect x="190" y="174" width="1" height="1" fill="#FBD5D8"/>
<rect x="190" y="179" width="1" height="1" fill="#FBD5D8"/>
</g>
<g clip-path="url(#clip19_2902_6992)">
<rect x="195" y="104" width="1" height="1" fill="#FBD5D8"/>
<rect x="195" y="109" width="1" height="1" fill="#FBD5D8"/>
<rect x="195" y="114" width="1" height="1" fill="#FBD5D8"/>
<rect x="195" y="119" width="1" height="1" fill="#FBD5D8"/>
<rect x="195" y="124" width="1" height="1" fill="#FBD5D8"/>
<rect x="195" y="129" width="1" height="1" fill="#FBD5D8"/>
<rect x="195" y="134" width="1" height="1" fill="#FBD5D8"/>
<rect x="195" y="139" width="1" height="1" fill="#FBD5D8"/>
<rect x="195" y="144" width="1" height="1" fill="#FBD5D8"/>
<rect x="195" y="149" width="1" height="1" fill="#FBD5D8"/>
<rect x="195" y="154" width="1" height="1" fill="#FBD5D8"/>
<rect x="195" y="159" width="1" height="1" fill="#FBD5D8"/>
<rect x="195" y="164" width="1" height="1" fill="#FBD5D8"/>
<rect x="195" y="169" width="1" height="1" fill="#FBD5D8"/>
<rect x="195" y="174" width="1" height="1" fill="#FBD5D8"/>
<rect x="195" y="179" width="1" height="1" fill="#FBD5D8"/>
</g>
<g clip-path="url(#clip20_2902_6992)">
<rect x="200" y="104" width="1" height="1" fill="#FBD5D8"/>
<rect x="200" y="109" width="1" height="1" fill="#FBD5D8"/>
<rect x="200" y="114" width="1" height="1" fill="#FBD5D8"/>
<rect x="200" y="119" width="1" height="1" fill="#FBD5D8"/>
<rect x="200" y="124" width="1" height="1" fill="#FBD5D8"/>
<rect x="200" y="129" width="1" height="1" fill="#FBD5D8"/>
<rect x="200" y="134" width="1" height="1" fill="#FBD5D8"/>
<rect x="200" y="139" width="1" height="1" fill="#FBD5D8"/>
<rect x="200" y="144" width="1" height="1" fill="#FBD5D8"/>
<rect x="200" y="149" width="1" height="1" fill="#FBD5D8"/>
<rect x="200" y="154" width="1" height="1" fill="#FBD5D8"/>
<rect x="200" y="159" width="1" height="1" fill="#FBD5D8"/>
<rect x="200" y="164" width="1" height="1" fill="#FBD5D8"/>
<rect x="200" y="169" width="1" height="1" fill="#FBD5D8"/>
<rect x="200" y="174" width="1" height="1" fill="#FBD5D8"/>
<rect x="200" y="179" width="1" height="1" fill="#FBD5D8"/>
</g>
<g clip-path="url(#clip21_2902_6992)">
<rect x="205" y="104" width="1" height="1" fill="#FBD5D8"/>
<rect x="205" y="109" width="1" height="1" fill="#FBD5D8"/>
<rect x="205" y="114" width="1" height="1" fill="#FBD5D8"/>
<rect x="205" y="119" width="1" height="1" fill="#FBD5D8"/>
<rect x="205" y="124" width="1" height="1" fill="#FBD5D8"/>
<rect x="205" y="129" width="1" height="1" fill="#FBD5D8"/>
<rect x="205" y="134" width="1" height="1" fill="#FBD5D8"/>
<rect x="205" y="139" width="1" height="1" fill="#FBD5D8"/>
<rect x="205" y="144" width="1" height="1" fill="#FBD5D8"/>
<rect x="205" y="149" width="1" height="1" fill="#FBD5D8"/>
<rect x="205" y="154" width="1" height="1" fill="#FBD5D8"/>
<rect x="205" y="159" width="1" height="1" fill="#FBD5D8"/>
<rect x="205" y="164" width="1" height="1" fill="#FBD5D8"/>
<rect x="205" y="169" width="1" height="1" fill="#FBD5D8"/>
<rect x="205" y="174" width="1" height="1" fill="#FBD5D8"/>
<rect x="205" y="179" width="1" height="1" fill="#FBD5D8"/>
</g>
<g clip-path="url(#clip22_2902_6992)">
<rect x="210" y="104" width="1" height="1" fill="#FBD5D8"/>
<rect x="210" y="109" width="1" height="1" fill="#FBD5D8"/>
<rect x="210" y="114" width="1" height="1" fill="#FBD5D8"/>
<rect x="210" y="119" width="1" height="1" fill="#FBD5D8"/>
<rect x="210" y="124" width="1" height="1" fill="#FBD5D8"/>
<rect x="210" y="129" width="1" height="1" fill="#FBD5D8"/>
<rect x="210" y="134" width="1" height="1" fill="#FBD5D8"/>
<rect x="210" y="139" width="1" height="1" fill="#FBD5D8"/>
<rect x="210" y="144" width="1" height="1" fill="#FBD5D8"/>
<rect x="210" y="149" width="1" height="1" fill="#FBD5D8"/>
<rect x="210" y="154" width="1" height="1" fill="#FBD5D8"/>
<rect x="210" y="159" width="1" height="1" fill="#FBD5D8"/>
<rect x="210" y="164" width="1" height="1" fill="#FBD5D8"/>
<rect x="210" y="169" width="1" height="1" fill="#FBD5D8"/>
<rect x="210" y="174" width="1" height="1" fill="#FBD5D8"/>
<rect x="210" y="179" width="1" height="1" fill="#FBD5D8"/>
</g>
<g clip-path="url(#clip23_2902_6992)">
<rect x="215" y="104" width="1" height="1" fill="#FBD5D8"/>
<rect x="215" y="109" width="1" height="1" fill="#FBD5D8"/>
<rect x="215" y="114" width="1" height="1" fill="#FBD5D8"/>
<rect x="215" y="119" width="1" height="1" fill="#FBD5D8"/>
<rect x="215" y="124" width="1" height="1" fill="#FBD5D8"/>
<rect x="215" y="129" width="1" height="1" fill="#FBD5D8"/>
<rect x="215" y="134" width="1" height="1" fill="#FBD5D8"/>
<rect x="215" y="139" width="1" height="1" fill="#FBD5D8"/>
<rect x="215" y="144" width="1" height="1" fill="#FBD5D8"/>
<rect x="215" y="149" width="1" height="1" fill="#FBD5D8"/>
<rect x="215" y="154" width="1" height="1" fill="#FBD5D8"/>
<rect x="215" y="159" width="1" height="1" fill="#FBD5D8"/>
<rect x="215" y="164" width="1" height="1" fill="#FBD5D8"/>
<rect x="215" y="169" width="1" height="1" fill="#FBD5D8"/>
<rect x="215" y="174" width="1" height="1" fill="#FBD5D8"/>
<rect x="215" y="179" width="1" height="1" fill="#FBD5D8"/>
</g>
<g clip-path="url(#clip24_2902_6992)">
<rect x="220" y="104" width="1" height="1" fill="#FBD5D8"/>
<rect x="220" y="109" width="1" height="1" fill="#FBD5D8"/>
<rect x="220" y="114" width="1" height="1" fill="#FBD5D8"/>
<rect x="220" y="119" width="1" height="1" fill="#FBD5D8"/>
<rect x="220" y="124" width="1" height="1" fill="#FBD5D8"/>
<rect x="220" y="129" width="1" height="1" fill="#FBD5D8"/>
<rect x="220" y="134" width="1" height="1" fill="#FBD5D8"/>
<rect x="220" y="139" width="1" height="1" fill="#FBD5D8"/>
<rect x="220" y="144" width="1" height="1" fill="#FBD5D8"/>
<rect x="220" y="149" width="1" height="1" fill="#FBD5D8"/>
<rect x="220" y="154" width="1" height="1" fill="#FBD5D8"/>
<rect x="220" y="159" width="1" height="1" fill="#FBD5D8"/>
<rect x="220" y="164" width="1" height="1" fill="#FBD5D8"/>
<rect x="220" y="169" width="1" height="1" fill="#FBD5D8"/>
<rect x="220" y="174" width="1" height="1" fill="#FBD5D8"/>
<rect x="220" y="179" width="1" height="1" fill="#FBD5D8"/>
</g>
<g clip-path="url(#clip25_2902_6992)">
<rect x="225" y="104" width="1" height="1" fill="#FBD5D8"/>
<rect x="225" y="109" width="1" height="1" fill="#FBD5D8"/>
<rect x="225" y="114" width="1" height="1" fill="#FBD5D8"/>
<rect x="225" y="119" width="1" height="1" fill="#FBD5D8"/>
<rect x="225" y="124" width="1" height="1" fill="#FBD5D8"/>
<rect x="225" y="129" width="1" height="1" fill="#FBD5D8"/>
<rect x="225" y="134" width="1" height="1" fill="#FBD5D8"/>
<rect x="225" y="139" width="1" height="1" fill="#FBD5D8"/>
<rect x="225" y="144" width="1" height="1" fill="#FBD5D8"/>
<rect x="225" y="149" width="1" height="1" fill="#FBD5D8"/>
<rect x="225" y="154" width="1" height="1" fill="#FBD5D8"/>
<rect x="225" y="159" width="1" height="1" fill="#FBD5D8"/>
<rect x="225" y="164" width="1" height="1" fill="#FBD5D8"/>
<rect x="225" y="169" width="1" height="1" fill="#FBD5D8"/>
<rect x="225" y="174" width="1" height="1" fill="#FBD5D8"/>
<rect x="225" y="179" width="1" height="1" fill="#FBD5D8"/>
</g>
<path d="M199.308 33.9885H70.6243C65.8281 33.9885 61.9399 37.8767 61.9399 42.6729V153.973C61.9399 158.769 65.8281 162.658 70.6243 162.658H199.308C204.104 162.658 207.993 158.769 207.993 153.973V42.6729C207.993 37.8767 204.104 33.9885 199.308 33.9885Z" fill="#141A2B" fill-opacity="0.02"/>
<g filter="url(#filter2_b_2902_6992)">
<path d="M199.308 33.9885H70.6243C65.8281 33.9885 61.9399 37.8767 61.9399 42.6729V153.973C61.9399 158.769 65.8281 162.658 70.6243 162.658H199.308C204.104 162.658 207.993 158.769 207.993 153.973V42.6729C207.993 37.8767 204.104 33.9885 199.308 33.9885Z" fill="white" fill-opacity="0.65"/>
<path d="M199.308 33.9885H70.6243C65.8281 33.9885 61.9399 37.8767 61.9399 42.6729V153.973C61.9399 158.769 65.8281 162.658 70.6243 162.658H199.308C204.104 162.658 207.993 158.769 207.993 153.973V42.6729C207.993 37.8767 204.104 33.9885 199.308 33.9885Z" stroke="#E1E4ED" stroke-width="1.2378" stroke-linejoin="round"/>
</g>
<path d="M199.308 33.9885H70.6268C68.3229 33.9885 66.1134 34.9037 64.4843 36.5329C62.8552 38.162 61.9399 40.3715 61.9399 42.6754V60.0466H208V42.6754C208 41.5342 207.775 40.4042 207.338 39.3499C206.901 38.2957 206.261 37.3378 205.454 36.5311C204.647 35.7244 203.689 35.0846 202.634 34.6484C201.58 34.2121 200.449 33.9879 199.308 33.9885Z" fill="white"/>
<path d="M199.308 33.9885H70.6268C68.3229 33.9885 66.1134 34.9037 64.4843 36.5329C62.8552 38.162 61.9399 40.3715 61.9399 42.6754V60.0466H208V42.6754C208 41.5342 207.775 40.4042 207.338 39.3499C206.901 38.2957 206.261 37.3378 205.454 36.5311C204.647 35.7244 203.689 35.0846 202.634 34.6484C201.58 34.2121 200.449 33.9879 199.308 33.9885Z" stroke="#E1E4ED" stroke-width="1.2378" stroke-linejoin="round"/>
<path d="M74.969 51.3597C77.3671 51.3597 79.3112 49.4156 79.3112 47.0175C79.3112 44.6194 77.3671 42.6753 74.969 42.6753C72.5709 42.6753 70.6268 44.6194 70.6268 47.0175C70.6268 49.4156 72.5709 51.3597 74.969 51.3597Z" fill="#182D66" fill-opacity="0.04" stroke="#E1E4ED" stroke-width="1.2378" stroke-linejoin="round"/>
<path d="M92.3377 51.3597C94.7359 51.3597 96.6799 49.4156 96.6799 47.0175C96.6799 44.6194 94.7359 42.6753 92.3377 42.6753C89.9396 42.6753 87.9955 44.6194 87.9955 47.0175C87.9955 49.4156 89.9396 51.3597 92.3377 51.3597Z" fill="#182D66" fill-opacity="0.04" stroke="#E1E4ED" stroke-width="1.2378" stroke-linecap="round" stroke-linejoin="round"/>
<path d="M109.709 51.3597C112.107 51.3597 114.051 49.4156 114.051 47.0175C114.051 44.6194 112.107 42.6753 109.709 42.6753C107.311 42.6753 105.367 44.6194 105.367 47.0175C105.367 49.4156 107.311 51.3597 109.709 51.3597Z" fill="#182D66" fill-opacity="0.04" stroke="#E1E4ED" stroke-width="1.2378" stroke-linejoin="round"/>
<g filter="url(#filter3_d_2902_6992)">
<path d="M120.319 96.1754C120.167 100.144 121.363 104.048 123.711 107.251C123.905 107.509 124.189 107.684 124.506 107.742C124.824 107.8 125.151 107.737 125.424 107.566C127.523 106.254 132.385 102.139 134.816 91.2044C136.105 85.7038 136.317 80.0059 135.44 74.4248C135.397 74.1816 135.425 73.9312 135.52 73.7032C135.615 73.4752 135.773 73.2793 135.976 73.1388C136.18 72.9983 136.419 72.919 136.666 72.9104C136.912 72.9019 137.156 72.9644 137.369 73.0905C145.226 77.7643 151.747 84.3825 156.304 92.3077C160.861 100.233 163.3 109.198 163.387 118.339C163.514 122.203 162.87 126.054 161.492 129.666C160.113 133.277 158.029 136.578 155.36 139.375C152.691 142.172 149.491 144.409 145.948 145.955C142.404 147.5 138.588 148.324 134.722 148.378C127.157 148.353 119.909 145.33 114.568 139.972C109.227 134.613 106.228 127.356 106.228 119.79C106.228 108.029 111.551 99.463 118.341 95.0515C118.539 94.9276 118.767 94.8596 119 94.8546C119.233 94.8496 119.463 94.9078 119.666 95.023C119.869 95.1382 120.036 95.3062 120.152 95.5091C120.267 95.712 120.325 95.9422 120.319 96.1754Z" fill="#FEF1F2"/>
<path d="M120.319 96.1754C120.167 100.144 121.363 104.048 123.711 107.251C123.905 107.509 124.189 107.684 124.506 107.742C124.824 107.8 125.151 107.737 125.424 107.566C127.523 106.254 132.385 102.139 134.816 91.2044C136.105 85.7038 136.317 80.0059 135.44 74.4248C135.397 74.1816 135.425 73.9312 135.52 73.7032C135.615 73.4752 135.773 73.2793 135.976 73.1388C136.18 72.9983 136.419 72.919 136.666 72.9104C136.912 72.9019 137.156 72.9644 137.369 73.0905C145.226 77.7643 151.747 84.3825 156.304 92.3077C160.861 100.233 163.3 109.198 163.387 118.339C163.514 122.203 162.87 126.054 161.492 129.666C160.113 133.277 158.029 136.578 155.36 139.375C152.691 142.172 149.491 144.409 145.948 145.955C142.404 147.5 138.588 148.324 134.722 148.378C127.157 148.353 119.909 145.33 114.568 139.972C109.227 134.613 106.228 127.356 106.228 119.79C106.228 108.029 111.551 99.463 118.341 95.0515C118.539 94.9276 118.767 94.8596 119 94.8546C119.233 94.8496 119.463 94.9078 119.666 95.023C119.869 95.1382 120.036 95.3062 120.152 95.5091C120.267 95.712 120.325 95.9422 120.319 96.1754Z" stroke="#CB101D" stroke-width="1.25" stroke-linecap="round" stroke-linejoin="round"/>
</g>
<path d="M143.805 114.51C143.595 114.421 143.365 114.389 143.138 114.418C142.911 114.446 142.696 114.534 142.514 114.672C142.332 114.81 142.189 114.993 142.1 115.204C142.012 115.414 141.98 115.645 142.008 115.871C142.156 116.854 142.212 117.849 142.174 118.842C141.951 125.321 137.909 129.277 133.376 129.121C132.017 129.093 130.694 128.678 129.564 127.923C128.434 127.169 127.543 126.107 126.996 124.863C126.883 124.606 126.69 124.393 126.445 124.255C126.201 124.118 125.919 124.062 125.641 124.098C125.363 124.133 125.104 124.257 124.902 124.452C124.7 124.646 124.566 124.9 124.521 125.177C124.016 127.843 124.281 130.596 125.284 133.117C126.287 135.638 127.986 137.821 130.184 139.412C132.381 141.002 134.986 141.935 137.693 142.1C140.401 142.266 143.1 141.658 145.475 140.346C147.85 139.035 149.802 137.075 151.105 134.696C152.407 132.316 153.005 129.615 152.83 126.908C152.654 124.201 151.712 121.6 150.113 119.408C148.514 117.217 146.325 115.525 143.8 114.532L143.805 114.51Z" fill="#FBD5D8" stroke="#CB101D" stroke-width="1.2378" stroke-linecap="round" stroke-linejoin="round"/>
</g>
<defs>
<filter id="filter0_f_2902_6992" x="122" y="31" width="142" height="138" filterUnits="userSpaceOnUse" color-interpolation-filters="sRGB">
<feFlood flood-opacity="0" result="BackgroundImageFix"/>
<feBlend mode="normal" in="SourceGraphic" in2="BackgroundImageFix" result="shape"/>
<feGaussianBlur stdDeviation="29" result="effect1_foregroundBlur_2902_6992"/>
</filter>
<filter id="filter1_f_2902_6992" x="19" y="-11" width="150" height="138" filterUnits="userSpaceOnUse" color-interpolation-filters="sRGB">
<feFlood flood-opacity="0" result="BackgroundImageFix"/>
<feBlend mode="normal" in="SourceGraphic" in2="BackgroundImageFix" result="shape"/>
<feGaussianBlur stdDeviation="29" result="effect1_foregroundBlur_2902_6992"/>
</filter>
<filter id="filter2_b_2902_6992" x="46.4675" y="18.5161" width="176.998" height="159.614" filterUnits="userSpaceOnUse" color-interpolation-filters="sRGB">
<feFlood flood-opacity="0" result="BackgroundImageFix"/>
<feGaussianBlur in="BackgroundImageFix" stdDeviation="7.42678"/>
<feComposite in2="SourceAlpha" operator="in" result="effect1_backgroundBlur_2902_6992"/>
<feBlend mode="normal" in="SourceGraphic" in2="effect1_backgroundBlur_2902_6992" result="shape"/>
</filter>
<filter id="filter3_d_2902_6992" x="77.6033" y="44.2847" width="114.425" height="132.719" filterUnits="userSpaceOnUse" color-interpolation-filters="sRGB">
<feFlood flood-opacity="0" result="BackgroundImageFix"/>
<feColorMatrix in="SourceAlpha" type="matrix" values="0 0 0 0 0 0 0 0 0 0 0 0 0 0 0 0 0 0 127 0" result="hardAlpha"/>
<feOffset/>
<feGaussianBlur stdDeviation="14"/>
<feComposite in2="hardAlpha" operator="out"/>
<feColorMatrix type="matrix" values="0 0 0 0 1 0 0 0 0 0 0 0 0 0 0.18 0 0 0 0.1 0"/>
<feBlend mode="normal" in2="BackgroundImageFix" result="effect1_dropShadow_2902_6992"/>
<feBlend mode="normal" in="SourceGraphic" in2="effect1_dropShadow_2902_6992" result="shape"/>
</filter>
<clipPath id="clip0_2902_6992">
<rect width="267" height="200" fill="white"/>
</clipPath>
<clipPath id="clip1_2902_6992">
<rect width="1" height="76" fill="white" transform="translate(105 104)"/>
</clipPath>
<clipPath id="clip2_2902_6992">
<rect width="1" height="76" fill="white" transform="translate(110 104)"/>
</clipPath>
<clipPath id="clip3_2902_6992">
<rect width="1" height="76" fill="white" transform="translate(115 104)"/>
</clipPath>
<clipPath id="clip4_2902_6992">
<rect width="1" height="76" fill="white" transform="translate(120 104)"/>
</clipPath>
<clipPath id="clip5_2902_6992">
<rect width="1" height="76" fill="white" transform="translate(125 104)"/>
</clipPath>
<clipPath id="clip6_2902_6992">
<rect width="1" height="76" fill="white" transform="translate(130 104)"/>
</clipPath>
<clipPath id="clip7_2902_6992">
<rect width="1" height="76" fill="white" transform="translate(135 104)"/>
</clipPath>
<clipPath id="clip8_2902_6992">
<rect width="1" height="76" fill="white" transform="translate(140 104)"/>
</clipPath>
<clipPath id="clip9_2902_6992">
<rect width="1" height="76" fill="white" transform="translate(145 104)"/>
</clipPath>
<clipPath id="clip10_2902_6992">
<rect width="1" height="76" fill="white" transform="translate(150 104)"/>
</clipPath>
<clipPath id="clip11_2902_6992">
<rect width="1" height="76" fill="white" transform="translate(155 104)"/>
</clipPath>
<clipPath id="clip12_2902_6992">
<rect width="1" height="76" fill="white" transform="translate(160 104)"/>
</clipPath>
<clipPath id="clip13_2902_6992">
<rect width="1" height="76" fill="white" transform="translate(165 104)"/>
</clipPath>
<clipPath id="clip14_2902_6992">
<rect width="1" height="76" fill="white" transform="translate(170 104)"/>
</clipPath>
<clipPath id="clip15_2902_6992">
<rect width="1" height="76" fill="white" transform="translate(175 104)"/>
</clipPath>
<clipPath id="clip16_2902_6992">
<rect width="1" height="76" fill="white" transform="translate(180 104)"/>
</clipPath>
<clipPath id="clip17_2902_6992">
<rect width="1" height="76" fill="white" transform="translate(185 104)"/>
</clipPath>
<clipPath id="clip18_2902_6992">
<rect width="1" height="76" fill="white" transform="translate(190 104)"/>
</clipPath>
<clipPath id="clip19_2902_6992">
<rect width="1" height="76" fill="white" transform="translate(195 104)"/>
</clipPath>
<clipPath id="clip20_2902_6992">
<rect width="1" height="76" fill="white" transform="translate(200 104)"/>
</clipPath>
<clipPath id="clip21_2902_6992">
<rect width="1" height="76" fill="white" transform="translate(205 104)"/>
</clipPath>
<clipPath id="clip22_2902_6992">
<rect width="1" height="76" fill="white" transform="translate(210 104)"/>
</clipPath>
<clipPath id="clip23_2902_6992">
<rect width="1" height="76" fill="white" transform="translate(215 104)"/>
</clipPath>
<clipPath id="clip24_2902_6992">
<rect width="1" height="76" fill="white" transform="translate(220 104)"/>
</clipPath>
<clipPath id="clip25_2902_6992">
<rect width="1" height="76" fill="white" transform="translate(225 104)"/>
</clipPath>
</defs>
</svg>
