<svg width="267" height="200" viewBox="0 0 267 200" fill="none" xmlns="http://www.w3.org/2000/svg">
<g filter="url(#filter0_f_2902_7232)">
<ellipse cx="133" cy="106.667" rx="13" ry="11" fill="#0D69D4"/>
</g>
<g clip-path="url(#clip0_2902_7232)">
<rect x="105" y="104" width="1.2" height="1.2" fill="#C7CDDB"/>
<rect x="105" y="110" width="1.2" height="1.2" fill="#C7CDDB"/>
<rect x="105" y="116" width="1.2" height="1.2" fill="#C7CDDB"/>
<rect x="105" y="122" width="1.2" height="1.2" fill="#C7CDDB"/>
<rect x="105" y="128" width="1.2" height="1.2" fill="#C7CDDB"/>
<rect x="105" y="134" width="1.2" height="1.2" fill="#C7CDDB"/>
<rect x="105" y="140" width="1.2" height="1.2" fill="#C7CDDB"/>
<rect x="105" y="146" width="1.2" height="1.2" fill="#C7CDDB"/>
<rect x="105" y="152" width="1.2" height="1.2" fill="#C7CDDB"/>
<rect x="105" y="158" width="1.2" height="1.2" fill="#C7CDDB"/>
<rect x="105" y="164" width="1.2" height="1.2" fill="#C7CDDB"/>
<rect x="105" y="170" width="1.2" height="1.2" fill="#C7CDDB"/>
<rect x="105" y="176" width="1.2" height="1.2" fill="#C7CDDB"/>
<rect x="105" y="182" width="1.2" height="1.2" fill="#C7CDDB"/>
<rect x="105" y="188" width="1.2" height="1.2" fill="#C7CDDB"/>
<rect x="105" y="194" width="1.2" height="1.2" fill="#C7CDDB"/>
</g>
<g clip-path="url(#clip1_2902_7232)">
<rect x="111" y="104" width="1.2" height="1.2" fill="#C7CDDB"/>
<rect x="111" y="110" width="1.2" height="1.2" fill="#C7CDDB"/>
<rect x="111" y="116" width="1.2" height="1.2" fill="#C7CDDB"/>
<rect x="111" y="122" width="1.2" height="1.2" fill="#C7CDDB"/>
<rect x="111" y="128" width="1.2" height="1.2" fill="#C7CDDB"/>
<rect x="111" y="134" width="1.2" height="1.2" fill="#C7CDDB"/>
<rect x="111" y="140" width="1.2" height="1.2" fill="#C7CDDB"/>
<rect x="111" y="146" width="1.2" height="1.2" fill="#C7CDDB"/>
<rect x="111" y="152" width="1.2" height="1.2" fill="#C7CDDB"/>
<rect x="111" y="158" width="1.2" height="1.2" fill="#C7CDDB"/>
<rect x="111" y="164" width="1.2" height="1.2" fill="#C7CDDB"/>
<rect x="111" y="170" width="1.2" height="1.2" fill="#C7CDDB"/>
<rect x="111" y="176" width="1.2" height="1.2" fill="#C7CDDB"/>
<rect x="111" y="182" width="1.2" height="1.2" fill="#C7CDDB"/>
<rect x="111" y="188" width="1.2" height="1.2" fill="#C7CDDB"/>
<rect x="111" y="194" width="1.2" height="1.2" fill="#C7CDDB"/>
</g>
<g clip-path="url(#clip2_2902_7232)">
<rect x="117" y="104" width="1.2" height="1.2" fill="#C7CDDB"/>
<rect x="117" y="110" width="1.2" height="1.2" fill="#C7CDDB"/>
<rect x="117" y="116" width="1.2" height="1.2" fill="#C7CDDB"/>
<rect x="117" y="122" width="1.2" height="1.2" fill="#C7CDDB"/>
<rect x="117" y="128" width="1.2" height="1.2" fill="#C7CDDB"/>
<rect x="117" y="134" width="1.2" height="1.2" fill="#C7CDDB"/>
<rect x="117" y="140" width="1.2" height="1.2" fill="#C7CDDB"/>
<rect x="117" y="146" width="1.2" height="1.2" fill="#C7CDDB"/>
<rect x="117" y="152" width="1.2" height="1.2" fill="#C7CDDB"/>
<rect x="117" y="158" width="1.2" height="1.2" fill="#C7CDDB"/>
<rect x="117" y="164" width="1.2" height="1.2" fill="#C7CDDB"/>
<rect x="117" y="170" width="1.2" height="1.2" fill="#C7CDDB"/>
<rect x="117" y="176" width="1.2" height="1.2" fill="#C7CDDB"/>
<rect x="117" y="182" width="1.2" height="1.2" fill="#C7CDDB"/>
<rect x="117" y="188" width="1.2" height="1.2" fill="#C7CDDB"/>
<rect x="117" y="194" width="1.2" height="1.2" fill="#C7CDDB"/>
</g>
<g clip-path="url(#clip3_2902_7232)">
<rect x="123" y="104" width="1.2" height="1.2" fill="#C7CDDB"/>
<rect x="123" y="110" width="1.2" height="1.2" fill="#C7CDDB"/>
<rect x="123" y="116" width="1.2" height="1.2" fill="#C7CDDB"/>
<rect x="123" y="122" width="1.2" height="1.2" fill="#C7CDDB"/>
<rect x="123" y="128" width="1.2" height="1.2" fill="#C7CDDB"/>
<rect x="123" y="134" width="1.2" height="1.2" fill="#C7CDDB"/>
<rect x="123" y="140" width="1.2" height="1.2" fill="#C7CDDB"/>
<rect x="123" y="146" width="1.2" height="1.2" fill="#C7CDDB"/>
<rect x="123" y="152" width="1.2" height="1.2" fill="#C7CDDB"/>
<rect x="123" y="158" width="1.2" height="1.2" fill="#C7CDDB"/>
<rect x="123" y="164" width="1.2" height="1.2" fill="#C7CDDB"/>
<rect x="123" y="170" width="1.2" height="1.2" fill="#C7CDDB"/>
<rect x="123" y="176" width="1.2" height="1.2" fill="#C7CDDB"/>
<rect x="123" y="182" width="1.2" height="1.2" fill="#C7CDDB"/>
<rect x="123" y="188" width="1.2" height="1.2" fill="#C7CDDB"/>
<rect x="123" y="194" width="1.2" height="1.2" fill="#C7CDDB"/>
</g>
<g clip-path="url(#clip4_2902_7232)">
<rect x="129" y="104" width="1.2" height="1.2" fill="#C7CDDB"/>
<rect x="129" y="110" width="1.2" height="1.2" fill="#C7CDDB"/>
<rect x="129" y="116" width="1.2" height="1.2" fill="#C7CDDB"/>
<rect x="129" y="122" width="1.2" height="1.2" fill="#C7CDDB"/>
<rect x="129" y="128" width="1.2" height="1.2" fill="#C7CDDB"/>
<rect x="129" y="134" width="1.2" height="1.2" fill="#C7CDDB"/>
<rect x="129" y="140" width="1.2" height="1.2" fill="#C7CDDB"/>
<rect x="129" y="146" width="1.2" height="1.2" fill="#C7CDDB"/>
<rect x="129" y="152" width="1.2" height="1.2" fill="#C7CDDB"/>
<rect x="129" y="158" width="1.2" height="1.2" fill="#C7CDDB"/>
<rect x="129" y="164" width="1.2" height="1.2" fill="#C7CDDB"/>
<rect x="129" y="170" width="1.2" height="1.2" fill="#C7CDDB"/>
<rect x="129" y="176" width="1.2" height="1.2" fill="#C7CDDB"/>
<rect x="129" y="182" width="1.2" height="1.2" fill="#C7CDDB"/>
<rect x="129" y="188" width="1.2" height="1.2" fill="#C7CDDB"/>
<rect x="129" y="194" width="1.2" height="1.2" fill="#C7CDDB"/>
</g>
<g clip-path="url(#clip5_2902_7232)">
<rect x="135" y="104" width="1.2" height="1.2" fill="#C7CDDB"/>
<rect x="135" y="110" width="1.2" height="1.2" fill="#C7CDDB"/>
<rect x="135" y="116" width="1.2" height="1.2" fill="#C7CDDB"/>
<rect x="135" y="122" width="1.2" height="1.2" fill="#C7CDDB"/>
<rect x="135" y="128" width="1.2" height="1.2" fill="#C7CDDB"/>
<rect x="135" y="134" width="1.2" height="1.2" fill="#C7CDDB"/>
<rect x="135" y="140" width="1.2" height="1.2" fill="#C7CDDB"/>
<rect x="135" y="146" width="1.2" height="1.2" fill="#C7CDDB"/>
<rect x="135" y="152" width="1.2" height="1.2" fill="#C7CDDB"/>
<rect x="135" y="158" width="1.2" height="1.2" fill="#C7CDDB"/>
<rect x="135" y="164" width="1.2" height="1.2" fill="#C7CDDB"/>
<rect x="135" y="170" width="1.2" height="1.2" fill="#C7CDDB"/>
<rect x="135" y="176" width="1.2" height="1.2" fill="#C7CDDB"/>
<rect x="135" y="182" width="1.2" height="1.2" fill="#C7CDDB"/>
<rect x="135" y="188" width="1.2" height="1.2" fill="#C7CDDB"/>
<rect x="135" y="194" width="1.2" height="1.2" fill="#C7CDDB"/>
</g>
<g clip-path="url(#clip6_2902_7232)">
<rect x="141" y="104" width="1.2" height="1.2" fill="#C7CDDB"/>
<rect x="141" y="110" width="1.2" height="1.2" fill="#C7CDDB"/>
<rect x="141" y="116" width="1.2" height="1.2" fill="#C7CDDB"/>
<rect x="141" y="122" width="1.2" height="1.2" fill="#C7CDDB"/>
<rect x="141" y="128" width="1.2" height="1.2" fill="#C7CDDB"/>
<rect x="141" y="134" width="1.2" height="1.2" fill="#C7CDDB"/>
<rect x="141" y="140" width="1.2" height="1.2" fill="#C7CDDB"/>
<rect x="141" y="146" width="1.2" height="1.2" fill="#C7CDDB"/>
<rect x="141" y="152" width="1.2" height="1.2" fill="#C7CDDB"/>
<rect x="141" y="158" width="1.2" height="1.2" fill="#C7CDDB"/>
<rect x="141" y="164" width="1.2" height="1.2" fill="#C7CDDB"/>
<rect x="141" y="170" width="1.2" height="1.2" fill="#C7CDDB"/>
<rect x="141" y="176" width="1.2" height="1.2" fill="#C7CDDB"/>
<rect x="141" y="182" width="1.2" height="1.2" fill="#C7CDDB"/>
<rect x="141" y="188" width="1.2" height="1.2" fill="#C7CDDB"/>
<rect x="141" y="194" width="1.2" height="1.2" fill="#C7CDDB"/>
</g>
<g clip-path="url(#clip7_2902_7232)">
<rect x="147" y="104" width="1.2" height="1.2" fill="#C7CDDB"/>
<rect x="147" y="110" width="1.2" height="1.2" fill="#C7CDDB"/>
<rect x="147" y="116" width="1.2" height="1.2" fill="#C7CDDB"/>
<rect x="147" y="122" width="1.2" height="1.2" fill="#C7CDDB"/>
<rect x="147" y="128" width="1.2" height="1.2" fill="#C7CDDB"/>
<rect x="147" y="134" width="1.2" height="1.2" fill="#C7CDDB"/>
<rect x="147" y="140" width="1.2" height="1.2" fill="#C7CDDB"/>
<rect x="147" y="146" width="1.2" height="1.2" fill="#C7CDDB"/>
<rect x="147" y="152" width="1.2" height="1.2" fill="#C7CDDB"/>
<rect x="147" y="158" width="1.2" height="1.2" fill="#C7CDDB"/>
<rect x="147" y="164" width="1.2" height="1.2" fill="#C7CDDB"/>
<rect x="147" y="170" width="1.2" height="1.2" fill="#C7CDDB"/>
<rect x="147" y="176" width="1.2" height="1.2" fill="#C7CDDB"/>
<rect x="147" y="182" width="1.2" height="1.2" fill="#C7CDDB"/>
<rect x="147" y="188" width="1.2" height="1.2" fill="#C7CDDB"/>
<rect x="147" y="194" width="1.2" height="1.2" fill="#C7CDDB"/>
</g>
<g clip-path="url(#clip8_2902_7232)">
<rect x="153" y="104" width="1.2" height="1.2" fill="#C7CDDB"/>
<rect x="153" y="110" width="1.2" height="1.2" fill="#C7CDDB"/>
<rect x="153" y="116" width="1.2" height="1.2" fill="#C7CDDB"/>
<rect x="153" y="122" width="1.2" height="1.2" fill="#C7CDDB"/>
<rect x="153" y="128" width="1.2" height="1.2" fill="#C7CDDB"/>
<rect x="153" y="134" width="1.2" height="1.2" fill="#C7CDDB"/>
<rect x="153" y="140" width="1.2" height="1.2" fill="#C7CDDB"/>
<rect x="153" y="146" width="1.2" height="1.2" fill="#C7CDDB"/>
<rect x="153" y="152" width="1.2" height="1.2" fill="#C7CDDB"/>
<rect x="153" y="158" width="1.2" height="1.2" fill="#C7CDDB"/>
<rect x="153" y="164" width="1.2" height="1.2" fill="#C7CDDB"/>
<rect x="153" y="170" width="1.2" height="1.2" fill="#C7CDDB"/>
<rect x="153" y="176" width="1.2" height="1.2" fill="#C7CDDB"/>
<rect x="153" y="182" width="1.2" height="1.2" fill="#C7CDDB"/>
<rect x="153" y="188" width="1.2" height="1.2" fill="#C7CDDB"/>
<rect x="153" y="194" width="1.2" height="1.2" fill="#C7CDDB"/>
</g>
<g clip-path="url(#clip9_2902_7232)">
<rect x="159" y="104" width="1.2" height="1.2" fill="#C7CDDB"/>
<rect x="159" y="110" width="1.2" height="1.2" fill="#C7CDDB"/>
<rect x="159" y="116" width="1.2" height="1.2" fill="#C7CDDB"/>
<rect x="159" y="122" width="1.2" height="1.2" fill="#C7CDDB"/>
<rect x="159" y="128" width="1.2" height="1.2" fill="#C7CDDB"/>
<rect x="159" y="134" width="1.2" height="1.2" fill="#C7CDDB"/>
<rect x="159" y="140" width="1.2" height="1.2" fill="#C7CDDB"/>
<rect x="159" y="146" width="1.2" height="1.2" fill="#C7CDDB"/>
<rect x="159" y="152" width="1.2" height="1.2" fill="#C7CDDB"/>
<rect x="159" y="158" width="1.2" height="1.2" fill="#C7CDDB"/>
<rect x="159" y="164" width="1.2" height="1.2" fill="#C7CDDB"/>
<rect x="159" y="170" width="1.2" height="1.2" fill="#C7CDDB"/>
<rect x="159" y="176" width="1.2" height="1.2" fill="#C7CDDB"/>
<rect x="159" y="182" width="1.2" height="1.2" fill="#C7CDDB"/>
<rect x="159" y="188" width="1.2" height="1.2" fill="#C7CDDB"/>
<rect x="159" y="194" width="1.2" height="1.2" fill="#C7CDDB"/>
</g>
<g clip-path="url(#clip10_2902_7232)">
<rect x="165" y="104" width="1.2" height="1.2" fill="#C7CDDB"/>
<rect x="165" y="110" width="1.2" height="1.2" fill="#C7CDDB"/>
<rect x="165" y="116" width="1.2" height="1.2" fill="#C7CDDB"/>
<rect x="165" y="122" width="1.2" height="1.2" fill="#C7CDDB"/>
<rect x="165" y="128" width="1.2" height="1.2" fill="#C7CDDB"/>
<rect x="165" y="134" width="1.2" height="1.2" fill="#C7CDDB"/>
<rect x="165" y="140" width="1.2" height="1.2" fill="#C7CDDB"/>
<rect x="165" y="146" width="1.2" height="1.2" fill="#C7CDDB"/>
<rect x="165" y="152" width="1.2" height="1.2" fill="#C7CDDB"/>
<rect x="165" y="158" width="1.2" height="1.2" fill="#C7CDDB"/>
<rect x="165" y="164" width="1.2" height="1.2" fill="#C7CDDB"/>
<rect x="165" y="170" width="1.2" height="1.2" fill="#C7CDDB"/>
<rect x="165" y="176" width="1.2" height="1.2" fill="#C7CDDB"/>
<rect x="165" y="182" width="1.2" height="1.2" fill="#C7CDDB"/>
<rect x="165" y="188" width="1.2" height="1.2" fill="#C7CDDB"/>
<rect x="165" y="194" width="1.2" height="1.2" fill="#C7CDDB"/>
</g>
<g clip-path="url(#clip11_2902_7232)">
<rect x="171" y="104" width="1.2" height="1.2" fill="#C7CDDB"/>
<rect x="171" y="110" width="1.2" height="1.2" fill="#C7CDDB"/>
<rect x="171" y="116" width="1.2" height="1.2" fill="#C7CDDB"/>
<rect x="171" y="122" width="1.2" height="1.2" fill="#C7CDDB"/>
<rect x="171" y="128" width="1.2" height="1.2" fill="#C7CDDB"/>
<rect x="171" y="134" width="1.2" height="1.2" fill="#C7CDDB"/>
<rect x="171" y="140" width="1.2" height="1.2" fill="#C7CDDB"/>
<rect x="171" y="146" width="1.2" height="1.2" fill="#C7CDDB"/>
<rect x="171" y="152" width="1.2" height="1.2" fill="#C7CDDB"/>
<rect x="171" y="158" width="1.2" height="1.2" fill="#C7CDDB"/>
<rect x="171" y="164" width="1.2" height="1.2" fill="#C7CDDB"/>
<rect x="171" y="170" width="1.2" height="1.2" fill="#C7CDDB"/>
<rect x="171" y="176" width="1.2" height="1.2" fill="#C7CDDB"/>
<rect x="171" y="182" width="1.2" height="1.2" fill="#C7CDDB"/>
<rect x="171" y="188" width="1.2" height="1.2" fill="#C7CDDB"/>
<rect x="171" y="194" width="1.2" height="1.2" fill="#C7CDDB"/>
</g>
<g clip-path="url(#clip12_2902_7232)">
<rect x="177" y="104" width="1.2" height="1.2" fill="#C7CDDB"/>
<rect x="177" y="110" width="1.2" height="1.2" fill="#C7CDDB"/>
<rect x="177" y="116" width="1.2" height="1.2" fill="#C7CDDB"/>
<rect x="177" y="122" width="1.2" height="1.2" fill="#C7CDDB"/>
<rect x="177" y="128" width="1.2" height="1.2" fill="#C7CDDB"/>
<rect x="177" y="134" width="1.2" height="1.2" fill="#C7CDDB"/>
<rect x="177" y="140" width="1.2" height="1.2" fill="#C7CDDB"/>
<rect x="177" y="146" width="1.2" height="1.2" fill="#C7CDDB"/>
<rect x="177" y="152" width="1.2" height="1.2" fill="#C7CDDB"/>
<rect x="177" y="158" width="1.2" height="1.2" fill="#C7CDDB"/>
<rect x="177" y="164" width="1.2" height="1.2" fill="#C7CDDB"/>
<rect x="177" y="170" width="1.2" height="1.2" fill="#C7CDDB"/>
<rect x="177" y="176" width="1.2" height="1.2" fill="#C7CDDB"/>
<rect x="177" y="182" width="1.2" height="1.2" fill="#C7CDDB"/>
<rect x="177" y="188" width="1.2" height="1.2" fill="#C7CDDB"/>
<rect x="177" y="194" width="1.2" height="1.2" fill="#C7CDDB"/>
</g>
<g clip-path="url(#clip13_2902_7232)">
<rect x="183" y="104" width="1.2" height="1.2" fill="#C7CDDB"/>
<rect x="183" y="110" width="1.2" height="1.2" fill="#C7CDDB"/>
<rect x="183" y="116" width="1.2" height="1.2" fill="#C7CDDB"/>
<rect x="183" y="122" width="1.2" height="1.2" fill="#C7CDDB"/>
<rect x="183" y="128" width="1.2" height="1.2" fill="#C7CDDB"/>
<rect x="183" y="134" width="1.2" height="1.2" fill="#C7CDDB"/>
<rect x="183" y="140" width="1.2" height="1.2" fill="#C7CDDB"/>
<rect x="183" y="146" width="1.2" height="1.2" fill="#C7CDDB"/>
<rect x="183" y="152" width="1.2" height="1.2" fill="#C7CDDB"/>
<rect x="183" y="158" width="1.2" height="1.2" fill="#C7CDDB"/>
<rect x="183" y="164" width="1.2" height="1.2" fill="#C7CDDB"/>
<rect x="183" y="170" width="1.2" height="1.2" fill="#C7CDDB"/>
<rect x="183" y="176" width="1.2" height="1.2" fill="#C7CDDB"/>
<rect x="183" y="182" width="1.2" height="1.2" fill="#C7CDDB"/>
<rect x="183" y="188" width="1.2" height="1.2" fill="#C7CDDB"/>
<rect x="183" y="194" width="1.2" height="1.2" fill="#C7CDDB"/>
</g>
<g clip-path="url(#clip14_2902_7232)">
<rect x="189" y="104" width="1.2" height="1.2" fill="#C7CDDB"/>
<rect x="189" y="110" width="1.2" height="1.2" fill="#C7CDDB"/>
<rect x="189" y="116" width="1.2" height="1.2" fill="#C7CDDB"/>
<rect x="189" y="122" width="1.2" height="1.2" fill="#C7CDDB"/>
<rect x="189" y="128" width="1.2" height="1.2" fill="#C7CDDB"/>
<rect x="189" y="134" width="1.2" height="1.2" fill="#C7CDDB"/>
<rect x="189" y="140" width="1.2" height="1.2" fill="#C7CDDB"/>
<rect x="189" y="146" width="1.2" height="1.2" fill="#C7CDDB"/>
<rect x="189" y="152" width="1.2" height="1.2" fill="#C7CDDB"/>
<rect x="189" y="158" width="1.2" height="1.2" fill="#C7CDDB"/>
<rect x="189" y="164" width="1.2" height="1.2" fill="#C7CDDB"/>
<rect x="189" y="170" width="1.2" height="1.2" fill="#C7CDDB"/>
<rect x="189" y="176" width="1.2" height="1.2" fill="#C7CDDB"/>
<rect x="189" y="182" width="1.2" height="1.2" fill="#C7CDDB"/>
<rect x="189" y="188" width="1.2" height="1.2" fill="#C7CDDB"/>
<rect x="189" y="194" width="1.2" height="1.2" fill="#C7CDDB"/>
</g>
<g clip-path="url(#clip15_2902_7232)">
<rect x="195" y="104" width="1.2" height="1.2" fill="#C7CDDB"/>
<rect x="195" y="110" width="1.2" height="1.2" fill="#C7CDDB"/>
<rect x="195" y="116" width="1.2" height="1.2" fill="#C7CDDB"/>
<rect x="195" y="122" width="1.2" height="1.2" fill="#C7CDDB"/>
<rect x="195" y="128" width="1.2" height="1.2" fill="#C7CDDB"/>
<rect x="195" y="134" width="1.2" height="1.2" fill="#C7CDDB"/>
<rect x="195" y="140" width="1.2" height="1.2" fill="#C7CDDB"/>
<rect x="195" y="146" width="1.2" height="1.2" fill="#C7CDDB"/>
<rect x="195" y="152" width="1.2" height="1.2" fill="#C7CDDB"/>
<rect x="195" y="158" width="1.2" height="1.2" fill="#C7CDDB"/>
<rect x="195" y="164" width="1.2" height="1.2" fill="#C7CDDB"/>
<rect x="195" y="170" width="1.2" height="1.2" fill="#C7CDDB"/>
<rect x="195" y="176" width="1.2" height="1.2" fill="#C7CDDB"/>
<rect x="195" y="182" width="1.2" height="1.2" fill="#C7CDDB"/>
<rect x="195" y="188" width="1.2" height="1.2" fill="#C7CDDB"/>
<rect x="195" y="194" width="1.2" height="1.2" fill="#C7CDDB"/>
</g>
<g clip-path="url(#clip16_2902_7232)">
<rect x="201" y="104" width="1.2" height="1.2" fill="#C7CDDB"/>
<rect x="201" y="110" width="1.2" height="1.2" fill="#C7CDDB"/>
<rect x="201" y="116" width="1.2" height="1.2" fill="#C7CDDB"/>
<rect x="201" y="122" width="1.2" height="1.2" fill="#C7CDDB"/>
<rect x="201" y="128" width="1.2" height="1.2" fill="#C7CDDB"/>
<rect x="201" y="134" width="1.2" height="1.2" fill="#C7CDDB"/>
<rect x="201" y="140" width="1.2" height="1.2" fill="#C7CDDB"/>
<rect x="201" y="146" width="1.2" height="1.2" fill="#C7CDDB"/>
<rect x="201" y="152" width="1.2" height="1.2" fill="#C7CDDB"/>
<rect x="201" y="158" width="1.2" height="1.2" fill="#C7CDDB"/>
<rect x="201" y="164" width="1.2" height="1.2" fill="#C7CDDB"/>
<rect x="201" y="170" width="1.2" height="1.2" fill="#C7CDDB"/>
<rect x="201" y="176" width="1.2" height="1.2" fill="#C7CDDB"/>
<rect x="201" y="182" width="1.2" height="1.2" fill="#C7CDDB"/>
<rect x="201" y="188" width="1.2" height="1.2" fill="#C7CDDB"/>
<rect x="201" y="194" width="1.2" height="1.2" fill="#C7CDDB"/>
</g>
<g clip-path="url(#clip17_2902_7232)">
<rect x="207" y="104" width="1.2" height="1.2" fill="#C7CDDB"/>
<rect x="207" y="110" width="1.2" height="1.2" fill="#C7CDDB"/>
<rect x="207" y="116" width="1.2" height="1.2" fill="#C7CDDB"/>
<rect x="207" y="122" width="1.2" height="1.2" fill="#C7CDDB"/>
<rect x="207" y="128" width="1.2" height="1.2" fill="#C7CDDB"/>
<rect x="207" y="134" width="1.2" height="1.2" fill="#C7CDDB"/>
<rect x="207" y="140" width="1.2" height="1.2" fill="#C7CDDB"/>
<rect x="207" y="146" width="1.2" height="1.2" fill="#C7CDDB"/>
<rect x="207" y="152" width="1.2" height="1.2" fill="#C7CDDB"/>
<rect x="207" y="158" width="1.2" height="1.2" fill="#C7CDDB"/>
<rect x="207" y="164" width="1.2" height="1.2" fill="#C7CDDB"/>
<rect x="207" y="170" width="1.2" height="1.2" fill="#C7CDDB"/>
<rect x="207" y="176" width="1.2" height="1.2" fill="#C7CDDB"/>
<rect x="207" y="182" width="1.2" height="1.2" fill="#C7CDDB"/>
<rect x="207" y="188" width="1.2" height="1.2" fill="#C7CDDB"/>
<rect x="207" y="194" width="1.2" height="1.2" fill="#C7CDDB"/>
</g>
<g clip-path="url(#clip18_2902_7232)">
<rect x="213" y="104" width="1.2" height="1.2" fill="#C7CDDB"/>
<rect x="213" y="110" width="1.2" height="1.2" fill="#C7CDDB"/>
<rect x="213" y="116" width="1.2" height="1.2" fill="#C7CDDB"/>
<rect x="213" y="122" width="1.2" height="1.2" fill="#C7CDDB"/>
<rect x="213" y="128" width="1.2" height="1.2" fill="#C7CDDB"/>
<rect x="213" y="134" width="1.2" height="1.2" fill="#C7CDDB"/>
<rect x="213" y="140" width="1.2" height="1.2" fill="#C7CDDB"/>
<rect x="213" y="146" width="1.2" height="1.2" fill="#C7CDDB"/>
<rect x="213" y="152" width="1.2" height="1.2" fill="#C7CDDB"/>
<rect x="213" y="158" width="1.2" height="1.2" fill="#C7CDDB"/>
<rect x="213" y="164" width="1.2" height="1.2" fill="#C7CDDB"/>
<rect x="213" y="170" width="1.2" height="1.2" fill="#C7CDDB"/>
<rect x="213" y="176" width="1.2" height="1.2" fill="#C7CDDB"/>
<rect x="213" y="182" width="1.2" height="1.2" fill="#C7CDDB"/>
<rect x="213" y="188" width="1.2" height="1.2" fill="#C7CDDB"/>
<rect x="213" y="194" width="1.2" height="1.2" fill="#C7CDDB"/>
</g>
<g clip-path="url(#clip19_2902_7232)">
<rect x="219" y="104" width="1.2" height="1.2" fill="#C7CDDB"/>
<rect x="219" y="110" width="1.2" height="1.2" fill="#C7CDDB"/>
<rect x="219" y="116" width="1.2" height="1.2" fill="#C7CDDB"/>
<rect x="219" y="122" width="1.2" height="1.2" fill="#C7CDDB"/>
<rect x="219" y="128" width="1.2" height="1.2" fill="#C7CDDB"/>
<rect x="219" y="134" width="1.2" height="1.2" fill="#C7CDDB"/>
<rect x="219" y="140" width="1.2" height="1.2" fill="#C7CDDB"/>
<rect x="219" y="146" width="1.2" height="1.2" fill="#C7CDDB"/>
<rect x="219" y="152" width="1.2" height="1.2" fill="#C7CDDB"/>
<rect x="219" y="158" width="1.2" height="1.2" fill="#C7CDDB"/>
<rect x="219" y="164" width="1.2" height="1.2" fill="#C7CDDB"/>
<rect x="219" y="170" width="1.2" height="1.2" fill="#C7CDDB"/>
<rect x="219" y="176" width="1.2" height="1.2" fill="#C7CDDB"/>
<rect x="219" y="182" width="1.2" height="1.2" fill="#C7CDDB"/>
<rect x="219" y="188" width="1.2" height="1.2" fill="#C7CDDB"/>
<rect x="219" y="194" width="1.2" height="1.2" fill="#C7CDDB"/>
</g>
<g clip-path="url(#clip20_2902_7232)">
<rect x="225" y="104" width="1.2" height="1.2" fill="#C7CDDB"/>
<rect x="225" y="110" width="1.2" height="1.2" fill="#C7CDDB"/>
<rect x="225" y="116" width="1.2" height="1.2" fill="#C7CDDB"/>
<rect x="225" y="122" width="1.2" height="1.2" fill="#C7CDDB"/>
<rect x="225" y="128" width="1.2" height="1.2" fill="#C7CDDB"/>
<rect x="225" y="134" width="1.2" height="1.2" fill="#C7CDDB"/>
<rect x="225" y="140" width="1.2" height="1.2" fill="#C7CDDB"/>
<rect x="225" y="146" width="1.2" height="1.2" fill="#C7CDDB"/>
<rect x="225" y="152" width="1.2" height="1.2" fill="#C7CDDB"/>
<rect x="225" y="158" width="1.2" height="1.2" fill="#C7CDDB"/>
<rect x="225" y="164" width="1.2" height="1.2" fill="#C7CDDB"/>
<rect x="225" y="170" width="1.2" height="1.2" fill="#C7CDDB"/>
<rect x="225" y="176" width="1.2" height="1.2" fill="#C7CDDB"/>
<rect x="225" y="182" width="1.2" height="1.2" fill="#C7CDDB"/>
<rect x="225" y="188" width="1.2" height="1.2" fill="#C7CDDB"/>
<rect x="225" y="194" width="1.2" height="1.2" fill="#C7CDDB"/>
</g>
<g clip-path="url(#clip21_2902_7232)">
<rect x="231" y="104" width="1.2" height="1.2" fill="#C7CDDB"/>
<rect x="231" y="110" width="1.2" height="1.2" fill="#C7CDDB"/>
<rect x="231" y="116" width="1.2" height="1.2" fill="#C7CDDB"/>
<rect x="231" y="122" width="1.2" height="1.2" fill="#C7CDDB"/>
<rect x="231" y="128" width="1.2" height="1.2" fill="#C7CDDB"/>
<rect x="231" y="134" width="1.2" height="1.2" fill="#C7CDDB"/>
<rect x="231" y="140" width="1.2" height="1.2" fill="#C7CDDB"/>
<rect x="231" y="146" width="1.2" height="1.2" fill="#C7CDDB"/>
<rect x="231" y="152" width="1.2" height="1.2" fill="#C7CDDB"/>
<rect x="231" y="158" width="1.2" height="1.2" fill="#C7CDDB"/>
<rect x="231" y="164" width="1.2" height="1.2" fill="#C7CDDB"/>
<rect x="231" y="170" width="1.2" height="1.2" fill="#C7CDDB"/>
<rect x="231" y="176" width="1.2" height="1.2" fill="#C7CDDB"/>
<rect x="231" y="182" width="1.2" height="1.2" fill="#C7CDDB"/>
<rect x="231" y="188" width="1.2" height="1.2" fill="#C7CDDB"/>
<rect x="231" y="194" width="1.2" height="1.2" fill="#C7CDDB"/>
</g>
<g clip-path="url(#clip22_2902_7232)">
<rect x="237" y="104" width="1.2" height="1.2" fill="#C7CDDB"/>
<rect x="237" y="110" width="1.2" height="1.2" fill="#C7CDDB"/>
<rect x="237" y="116" width="1.2" height="1.2" fill="#C7CDDB"/>
<rect x="237" y="122" width="1.2" height="1.2" fill="#C7CDDB"/>
<rect x="237" y="128" width="1.2" height="1.2" fill="#C7CDDB"/>
<rect x="237" y="134" width="1.2" height="1.2" fill="#C7CDDB"/>
<rect x="237" y="140" width="1.2" height="1.2" fill="#C7CDDB"/>
<rect x="237" y="146" width="1.2" height="1.2" fill="#C7CDDB"/>
<rect x="237" y="152" width="1.2" height="1.2" fill="#C7CDDB"/>
<rect x="237" y="158" width="1.2" height="1.2" fill="#C7CDDB"/>
<rect x="237" y="164" width="1.2" height="1.2" fill="#C7CDDB"/>
<rect x="237" y="170" width="1.2" height="1.2" fill="#C7CDDB"/>
<rect x="237" y="176" width="1.2" height="1.2" fill="#C7CDDB"/>
<rect x="237" y="182" width="1.2" height="1.2" fill="#C7CDDB"/>
<rect x="237" y="188" width="1.2" height="1.2" fill="#C7CDDB"/>
<rect x="237" y="194" width="1.2" height="1.2" fill="#C7CDDB"/>
</g>
<g clip-path="url(#clip23_2902_7232)">
<rect x="243" y="104" width="1.2" height="1.2" fill="#C7CDDB"/>
<rect x="243" y="110" width="1.2" height="1.2" fill="#C7CDDB"/>
<rect x="243" y="116" width="1.2" height="1.2" fill="#C7CDDB"/>
<rect x="243" y="122" width="1.2" height="1.2" fill="#C7CDDB"/>
<rect x="243" y="128" width="1.2" height="1.2" fill="#C7CDDB"/>
<rect x="243" y="134" width="1.2" height="1.2" fill="#C7CDDB"/>
<rect x="243" y="140" width="1.2" height="1.2" fill="#C7CDDB"/>
<rect x="243" y="146" width="1.2" height="1.2" fill="#C7CDDB"/>
<rect x="243" y="152" width="1.2" height="1.2" fill="#C7CDDB"/>
<rect x="243" y="158" width="1.2" height="1.2" fill="#C7CDDB"/>
<rect x="243" y="164" width="1.2" height="1.2" fill="#C7CDDB"/>
<rect x="243" y="170" width="1.2" height="1.2" fill="#C7CDDB"/>
<rect x="243" y="176" width="1.2" height="1.2" fill="#C7CDDB"/>
<rect x="243" y="182" width="1.2" height="1.2" fill="#C7CDDB"/>
<rect x="243" y="188" width="1.2" height="1.2" fill="#C7CDDB"/>
<rect x="243" y="194" width="1.2" height="1.2" fill="#C7CDDB"/>
</g>
<g clip-path="url(#clip24_2902_7232)">
<rect x="249" y="104" width="1.2" height="1.2" fill="#C7CDDB"/>
<rect x="249" y="110" width="1.2" height="1.2" fill="#C7CDDB"/>
<rect x="249" y="116" width="1.2" height="1.2" fill="#C7CDDB"/>
<rect x="249" y="122" width="1.2" height="1.2" fill="#C7CDDB"/>
<rect x="249" y="128" width="1.2" height="1.2" fill="#C7CDDB"/>
<rect x="249" y="134" width="1.2" height="1.2" fill="#C7CDDB"/>
<rect x="249" y="140" width="1.2" height="1.2" fill="#C7CDDB"/>
<rect x="249" y="146" width="1.2" height="1.2" fill="#C7CDDB"/>
<rect x="249" y="152" width="1.2" height="1.2" fill="#C7CDDB"/>
<rect x="249" y="158" width="1.2" height="1.2" fill="#C7CDDB"/>
<rect x="249" y="164" width="1.2" height="1.2" fill="#C7CDDB"/>
<rect x="249" y="170" width="1.2" height="1.2" fill="#C7CDDB"/>
<rect x="249" y="176" width="1.2" height="1.2" fill="#C7CDDB"/>
<rect x="249" y="182" width="1.2" height="1.2" fill="#C7CDDB"/>
<rect x="249" y="188" width="1.2" height="1.2" fill="#C7CDDB"/>
<rect x="249" y="194" width="1.2" height="1.2" fill="#C7CDDB"/>
</g>
<path d="M182.738 60.3367L183.034 82.9767L167.06 67.6667L182.738 60.3367Z" fill="white" stroke="#494270" stroke-width="2.4" stroke-linecap="round" stroke-linejoin="round"/>
<path d="M167.06 67.6667L162.448 84.5188L183.034 82.9768L167.06 67.6667Z" fill="#EDD6FF" stroke="#494270" stroke-width="2.4" stroke-linecap="round" stroke-linejoin="round"/>
<path d="M90.676 124.223L97.854 142.993L78.824 122.935L90.676 124.223Z" fill="white" stroke="#494270" stroke-width="2.4" stroke-linecap="round" stroke-linejoin="round"/>
<path d="M78.8241 122.935L72.0661 143.695L97.8541 142.993L78.8241 122.935Z" fill="#D6FFF5" stroke="#494270" stroke-width="2.4" stroke-linecap="round" stroke-linejoin="round"/>
<path d="M118.54 50.8507L135.124 40.6667L119.43 62.3627L118.54 50.8507Z" fill="white" stroke="#494270" stroke-width="2.4" stroke-linecap="round" stroke-linejoin="round"/>
<path d="M119.43 62.3627L140.4 65.0887L135.124 40.6667L119.43 62.3627Z" fill="#D6FFF5" stroke="#494270" stroke-width="2.4" stroke-linecap="round" stroke-linejoin="round"/>
<path d="M58.0001 52.9187L74.8621 66.4087L71.4901 90.0147L58.0001 52.9187Z" fill="#F9FFD6" stroke="#494270" stroke-width="2.4" stroke-linecap="round" stroke-linejoin="round"/>
<path d="M71.4901 90.0148L95.0961 59.6648L74.8621 66.4088L71.4901 90.0148Z" fill="#F9FFD6" stroke="#494270" stroke-width="2.4" stroke-linecap="round" stroke-linejoin="round"/>
<path d="M58.0001 52.9188L78.2361 46.1748L95.0961 59.6648L74.8621 66.4088L58.0001 52.9188Z" fill="white" stroke="#494270" stroke-width="2.4" stroke-linecap="round" stroke-linejoin="round"/>
<path d="M173.143 144.04C174.306 145.203 174.959 146.78 174.959 148.425C174.959 150.069 174.306 151.647 173.143 152.81C171.98 153.973 170.403 154.626 168.758 154.626C167.113 154.626 165.536 153.973 164.373 152.81L150.241 138.686C149.937 138.382 149.696 138.021 149.532 137.625C149.367 137.228 149.282 136.802 149.282 136.373C149.282 135.943 149.367 135.518 149.532 135.121C149.696 134.724 149.937 134.363 150.241 134.06L154.385 129.916C154.999 129.302 155.831 128.958 156.698 128.958C157.565 128.958 158.397 129.302 159.011 129.916L173.143 144.04Z" fill="#EDF5FF" stroke="#14171F" stroke-width="2.4" stroke-linecap="round" stroke-linejoin="round"/>
<path d="M139.157 123.209L143.542 118.824L154.505 129.787L150.12 134.172L139.157 123.209Z" fill="white" stroke="#14171F" stroke-width="2.4" stroke-linecap="round" stroke-linejoin="round"/>
<path d="M144.639 84.8399C148.542 88.7427 151.199 93.715 152.276 99.1282C153.352 104.541 152.8 110.152 150.688 115.251C148.575 120.35 144.999 124.709 140.41 127.775C135.82 130.841 130.425 132.478 124.906 132.478C119.387 132.478 113.991 130.841 109.402 127.775C104.813 124.709 101.236 120.35 99.1243 115.251C97.0121 110.152 96.4594 104.541 97.5361 99.1282C98.6127 93.715 101.27 88.7427 105.173 84.8399C110.407 79.6067 117.505 76.6667 124.906 76.6667C132.307 76.6667 139.405 79.6067 144.639 84.8399Z" fill="white" stroke="#14171F" stroke-width="2.4" stroke-linecap="round" stroke-linejoin="round"/>
<path d="M139.157 90.3217C141.976 93.1403 143.895 96.7314 144.673 100.641C145.45 104.55 145.051 108.603 143.526 112.285C142 115.968 139.417 119.116 136.103 121.33C132.789 123.545 128.892 124.727 124.906 124.727C120.92 124.727 117.023 123.545 113.709 121.33C110.395 119.116 107.811 115.968 106.286 112.285C104.761 108.603 104.362 104.55 105.139 100.641C105.917 96.7314 107.836 93.1403 110.655 90.3217C112.526 88.45 114.748 86.9653 117.193 85.9523C119.638 84.9393 122.259 84.418 124.906 84.418C127.553 84.418 130.173 84.9393 132.619 85.9523C135.064 86.9653 137.286 88.45 139.157 90.3217Z" fill="#EDF5FF"/>
<path d="M139.157 90.3217C141.976 93.1403 143.895 96.7314 144.673 100.641C145.45 104.55 145.051 108.603 143.526 112.285C142 115.968 139.417 119.116 136.103 121.33C132.789 123.545 128.892 124.727 124.906 124.727C120.92 124.727 117.023 123.545 113.709 121.33C110.395 119.116 107.811 115.968 106.286 112.285C104.761 108.603 104.362 104.55 105.139 100.641C105.917 96.7314 107.836 93.1403 110.655 90.3217C112.526 88.45 114.748 86.9653 117.193 85.9523C119.638 84.9393 122.259 84.418 124.906 84.418C127.553 84.418 130.173 84.9393 132.619 85.9523C135.064 86.9653 137.286 88.45 139.157 90.3217Z" stroke="#14171F" stroke-width="2.4" stroke-linecap="round" stroke-linejoin="round"/>
<defs>
<filter id="filter0_f_2902_7232" x="50.4001" y="26.0665" width="165.2" height="161.2" filterUnits="userSpaceOnUse" color-interpolation-filters="sRGB">
<feFlood flood-opacity="0" result="BackgroundImageFix"/>
<feBlend mode="normal" in="SourceGraphic" in2="BackgroundImageFix" result="shape"/>
<feGaussianBlur stdDeviation="34.8" result="effect1_foregroundBlur_2902_7232"/>
</filter>
<clipPath id="clip0_2902_7232">
<rect width="1.2" height="91.2" fill="white" transform="translate(105 104)"/>
</clipPath>
<clipPath id="clip1_2902_7232">
<rect width="1.2" height="91.2" fill="white" transform="translate(111 104)"/>
</clipPath>
<clipPath id="clip2_2902_7232">
<rect width="1.2" height="91.2" fill="white" transform="translate(117 104)"/>
</clipPath>
<clipPath id="clip3_2902_7232">
<rect width="1.2" height="91.2" fill="white" transform="translate(123 104)"/>
</clipPath>
<clipPath id="clip4_2902_7232">
<rect width="1.2" height="91.2" fill="white" transform="translate(129 104)"/>
</clipPath>
<clipPath id="clip5_2902_7232">
<rect width="1.2" height="91.2" fill="white" transform="translate(135 104)"/>
</clipPath>
<clipPath id="clip6_2902_7232">
<rect width="1.2" height="91.2" fill="white" transform="translate(141 104)"/>
</clipPath>
<clipPath id="clip7_2902_7232">
<rect width="1.2" height="91.2" fill="white" transform="translate(147 104)"/>
</clipPath>
<clipPath id="clip8_2902_7232">
<rect width="1.2" height="91.2" fill="white" transform="translate(153 104)"/>
</clipPath>
<clipPath id="clip9_2902_7232">
<rect width="1.2" height="91.2" fill="white" transform="translate(159 104)"/>
</clipPath>
<clipPath id="clip10_2902_7232">
<rect width="1.2" height="91.2" fill="white" transform="translate(165 104)"/>
</clipPath>
<clipPath id="clip11_2902_7232">
<rect width="1.2" height="91.2" fill="white" transform="translate(171 104)"/>
</clipPath>
<clipPath id="clip12_2902_7232">
<rect width="1.2" height="91.2" fill="white" transform="translate(177 104)"/>
</clipPath>
<clipPath id="clip13_2902_7232">
<rect width="1.2" height="91.2" fill="white" transform="translate(183 104)"/>
</clipPath>
<clipPath id="clip14_2902_7232">
<rect width="1.2" height="91.2" fill="white" transform="translate(189 104)"/>
</clipPath>
<clipPath id="clip15_2902_7232">
<rect width="1.2" height="91.2" fill="white" transform="translate(195 104)"/>
</clipPath>
<clipPath id="clip16_2902_7232">
<rect width="1.2" height="91.2" fill="white" transform="translate(201 104)"/>
</clipPath>
<clipPath id="clip17_2902_7232">
<rect width="1.2" height="91.2" fill="white" transform="translate(207 104)"/>
</clipPath>
<clipPath id="clip18_2902_7232">
<rect width="1.2" height="91.2" fill="white" transform="translate(213 104)"/>
</clipPath>
<clipPath id="clip19_2902_7232">
<rect width="1.2" height="91.2" fill="white" transform="translate(219 104)"/>
</clipPath>
<clipPath id="clip20_2902_7232">
<rect width="1.2" height="91.2" fill="white" transform="translate(225 104)"/>
</clipPath>
<clipPath id="clip21_2902_7232">
<rect width="1.2" height="91.2" fill="white" transform="translate(231 104)"/>
</clipPath>
<clipPath id="clip22_2902_7232">
<rect width="1.2" height="91.2" fill="white" transform="translate(237 104)"/>
</clipPath>
<clipPath id="clip23_2902_7232">
<rect width="1.2" height="91.2" fill="white" transform="translate(243 104)"/>
</clipPath>
<clipPath id="clip24_2902_7232">
<rect width="1.2" height="91.2" fill="white" transform="translate(249 104)"/>
</clipPath>
</defs>
</svg>
