<svg width="267" height="200" viewBox="0 0 267 200" fill="none" xmlns="http://www.w3.org/2000/svg">
<g clip-path="url(#clip0_2902_7231)">
<g filter="url(#filter0_f_2902_7231)">
<ellipse cx="143.664" cy="60.8967" rx="20.9503" ry="13.5503" fill="#FCA777"/>
</g>
<path d="M98.0659 105.243H99.0659V106.243H98.0659V105.243Z" fill="#C7CDDB"/>
<path d="M98.0659 110.243H99.0659V111.243H98.0659V110.243Z" fill="#C7CDDB"/>
<path d="M98.0659 115.243H99.0659V116.243H98.0659V115.243Z" fill="#C7CDDB"/>
<path d="M98.0659 120.243H99.0659V121.243H98.0659V120.243Z" fill="#C7CDDB"/>
<path d="M98.0659 125.243H99.0659V126.243H98.0659V125.243Z" fill="#C7CDDB"/>
<path d="M98.0659 130.243H99.0659V131.243H98.0659V130.243Z" fill="#C7CDDB"/>
<path d="M98.0659 135.243H99.0659V136.243H98.0659V135.243Z" fill="#C7CDDB"/>
<path d="M98.0659 140.243H99.0659V141.243H98.0659V140.243Z" fill="#C7CDDB"/>
<path d="M98.0659 145.243H99.0659V146.243H98.0659V145.243Z" fill="#C7CDDB"/>
<path d="M98.0659 150.243H99.0659V151.243H98.0659V150.243Z" fill="#C7CDDB"/>
<path d="M98.0659 155.243H99.0659V156.243H98.0659V155.243Z" fill="#C7CDDB"/>
<path d="M98.0659 160.243H99.0659V161.243H98.0659V160.243Z" fill="#C7CDDB"/>
<path d="M98.0659 165.243H99.0659V166.243H98.0659V165.243Z" fill="#C7CDDB"/>
<path d="M98.0659 170.243H99.0659V171.243H98.0659V170.243Z" fill="#C7CDDB"/>
<path d="M98.0659 175.243H99.0659V176.243H98.0659V175.243Z" fill="#C7CDDB"/>
<path d="M98.0659 180.243H99.0659V181.243H98.0659V180.243Z" fill="#C7CDDB"/>
<path d="M103.066 105.243H104.066V106.243H103.066V105.243Z" fill="#C7CDDB"/>
<path d="M103.066 110.243H104.066V111.243H103.066V110.243Z" fill="#C7CDDB"/>
<path d="M103.066 115.243H104.066V116.243H103.066V115.243Z" fill="#C7CDDB"/>
<path d="M103.066 120.243H104.066V121.243H103.066V120.243Z" fill="#C7CDDB"/>
<path d="M103.066 125.243H104.066V126.243H103.066V125.243Z" fill="#C7CDDB"/>
<path d="M103.066 130.243H104.066V131.243H103.066V130.243Z" fill="#C7CDDB"/>
<path d="M103.066 135.243H104.066V136.243H103.066V135.243Z" fill="#C7CDDB"/>
<path d="M103.066 140.243H104.066V141.243H103.066V140.243Z" fill="#C7CDDB"/>
<path d="M103.066 145.243H104.066V146.243H103.066V145.243Z" fill="#C7CDDB"/>
<path d="M103.066 150.243H104.066V151.243H103.066V150.243Z" fill="#C7CDDB"/>
<path d="M103.066 155.243H104.066V156.243H103.066V155.243Z" fill="#C7CDDB"/>
<path d="M103.066 160.243H104.066V161.243H103.066V160.243Z" fill="#C7CDDB"/>
<path d="M103.066 165.243H104.066V166.243H103.066V165.243Z" fill="#C7CDDB"/>
<path d="M103.066 170.243H104.066V171.243H103.066V170.243Z" fill="#C7CDDB"/>
<path d="M103.066 175.243H104.066V176.243H103.066V175.243Z" fill="#C7CDDB"/>
<path d="M103.066 180.243H104.066V181.243H103.066V180.243Z" fill="#C7CDDB"/>
<path d="M108.066 105.243H109.066V106.243H108.066V105.243Z" fill="#C7CDDB"/>
<path d="M108.066 110.243H109.066V111.243H108.066V110.243Z" fill="#C7CDDB"/>
<path d="M108.066 115.243H109.066V116.243H108.066V115.243Z" fill="#C7CDDB"/>
<path d="M108.066 120.243H109.066V121.243H108.066V120.243Z" fill="#C7CDDB"/>
<path d="M108.066 125.243H109.066V126.243H108.066V125.243Z" fill="#C7CDDB"/>
<path d="M108.066 130.243H109.066V131.243H108.066V130.243Z" fill="#C7CDDB"/>
<path d="M108.066 135.243H109.066V136.243H108.066V135.243Z" fill="#C7CDDB"/>
<path d="M108.066 140.243H109.066V141.243H108.066V140.243Z" fill="#C7CDDB"/>
<path d="M108.066 145.243H109.066V146.243H108.066V145.243Z" fill="#C7CDDB"/>
<path d="M108.066 150.243H109.066V151.243H108.066V150.243Z" fill="#C7CDDB"/>
<path d="M108.066 155.243H109.066V156.243H108.066V155.243Z" fill="#C7CDDB"/>
<path d="M108.066 160.243H109.066V161.243H108.066V160.243Z" fill="#C7CDDB"/>
<path d="M108.066 165.243H109.066V166.243H108.066V165.243Z" fill="#C7CDDB"/>
<path d="M108.066 170.243H109.066V171.243H108.066V170.243Z" fill="#C7CDDB"/>
<path d="M108.066 175.243H109.066V176.243H108.066V175.243Z" fill="#C7CDDB"/>
<path d="M108.066 180.243H109.066V181.243H108.066V180.243Z" fill="#C7CDDB"/>
<path d="M113.066 105.243H114.066V106.243H113.066V105.243Z" fill="#C7CDDB"/>
<path d="M113.066 110.243H114.066V111.243H113.066V110.243Z" fill="#C7CDDB"/>
<path d="M113.066 115.243H114.066V116.243H113.066V115.243Z" fill="#C7CDDB"/>
<path d="M113.066 120.243H114.066V121.243H113.066V120.243Z" fill="#C7CDDB"/>
<path d="M113.066 125.243H114.066V126.243H113.066V125.243Z" fill="#C7CDDB"/>
<path d="M113.066 130.243H114.066V131.243H113.066V130.243Z" fill="#C7CDDB"/>
<path d="M113.066 135.243H114.066V136.243H113.066V135.243Z" fill="#C7CDDB"/>
<path d="M113.066 140.243H114.066V141.243H113.066V140.243Z" fill="#C7CDDB"/>
<path d="M113.066 145.243H114.066V146.243H113.066V145.243Z" fill="#C7CDDB"/>
<path d="M113.066 150.243H114.066V151.243H113.066V150.243Z" fill="#C7CDDB"/>
<path d="M113.066 155.243H114.066V156.243H113.066V155.243Z" fill="#C7CDDB"/>
<path d="M113.066 160.243H114.066V161.243H113.066V160.243Z" fill="#C7CDDB"/>
<path d="M113.066 165.243H114.066V166.243H113.066V165.243Z" fill="#C7CDDB"/>
<path d="M113.066 170.243H114.066V171.243H113.066V170.243Z" fill="#C7CDDB"/>
<path d="M113.066 175.243H114.066V176.243H113.066V175.243Z" fill="#C7CDDB"/>
<path d="M113.066 180.243H114.066V181.243H113.066V180.243Z" fill="#C7CDDB"/>
<path d="M118.066 105.243H119.066V106.243H118.066V105.243Z" fill="#C7CDDB"/>
<path d="M118.066 110.243H119.066V111.243H118.066V110.243Z" fill="#C7CDDB"/>
<path d="M118.066 115.243H119.066V116.243H118.066V115.243Z" fill="#C7CDDB"/>
<path d="M118.066 120.243H119.066V121.243H118.066V120.243Z" fill="#C7CDDB"/>
<path d="M118.066 125.243H119.066V126.243H118.066V125.243Z" fill="#C7CDDB"/>
<path d="M118.066 130.243H119.066V131.243H118.066V130.243Z" fill="#C7CDDB"/>
<path d="M118.066 135.243H119.066V136.243H118.066V135.243Z" fill="#C7CDDB"/>
<path d="M118.066 140.243H119.066V141.243H118.066V140.243Z" fill="#C7CDDB"/>
<path d="M118.066 145.243H119.066V146.243H118.066V145.243Z" fill="#C7CDDB"/>
<path d="M118.066 150.243H119.066V151.243H118.066V150.243Z" fill="#C7CDDB"/>
<path d="M118.066 155.243H119.066V156.243H118.066V155.243Z" fill="#C7CDDB"/>
<path d="M118.066 160.243H119.066V161.243H118.066V160.243Z" fill="#C7CDDB"/>
<path d="M118.066 165.243H119.066V166.243H118.066V165.243Z" fill="#C7CDDB"/>
<path d="M118.066 170.243H119.066V171.243H118.066V170.243Z" fill="#C7CDDB"/>
<path d="M118.066 175.243H119.066V176.243H118.066V175.243Z" fill="#C7CDDB"/>
<path d="M118.066 180.243H119.066V181.243H118.066V180.243Z" fill="#C7CDDB"/>
<path d="M123.066 105.243H124.066V106.243H123.066V105.243Z" fill="#C7CDDB"/>
<path d="M123.066 110.243H124.066V111.243H123.066V110.243Z" fill="#C7CDDB"/>
<path d="M123.066 115.243H124.066V116.243H123.066V115.243Z" fill="#C7CDDB"/>
<path d="M123.066 120.243H124.066V121.243H123.066V120.243Z" fill="#C7CDDB"/>
<path d="M123.066 125.243H124.066V126.243H123.066V125.243Z" fill="#C7CDDB"/>
<path d="M123.066 130.243H124.066V131.243H123.066V130.243Z" fill="#C7CDDB"/>
<path d="M123.066 135.243H124.066V136.243H123.066V135.243Z" fill="#C7CDDB"/>
<path d="M123.066 140.243H124.066V141.243H123.066V140.243Z" fill="#C7CDDB"/>
<path d="M123.066 145.243H124.066V146.243H123.066V145.243Z" fill="#C7CDDB"/>
<path d="M123.066 150.243H124.066V151.243H123.066V150.243Z" fill="#C7CDDB"/>
<path d="M123.066 155.243H124.066V156.243H123.066V155.243Z" fill="#C7CDDB"/>
<path d="M123.066 160.243H124.066V161.243H123.066V160.243Z" fill="#C7CDDB"/>
<path d="M123.066 165.243H124.066V166.243H123.066V165.243Z" fill="#C7CDDB"/>
<path d="M123.066 170.243H124.066V171.243H123.066V170.243Z" fill="#C7CDDB"/>
<path d="M123.066 175.243H124.066V176.243H123.066V175.243Z" fill="#C7CDDB"/>
<path d="M123.066 180.243H124.066V181.243H123.066V180.243Z" fill="#C7CDDB"/>
<path d="M128.066 105.243H129.066V106.243H128.066V105.243Z" fill="#C7CDDB"/>
<path d="M128.066 110.243H129.066V111.243H128.066V110.243Z" fill="#C7CDDB"/>
<path d="M128.066 115.243H129.066V116.243H128.066V115.243Z" fill="#C7CDDB"/>
<path d="M128.066 120.243H129.066V121.243H128.066V120.243Z" fill="#C7CDDB"/>
<path d="M128.066 125.243H129.066V126.243H128.066V125.243Z" fill="#C7CDDB"/>
<path d="M128.066 130.243H129.066V131.243H128.066V130.243Z" fill="#C7CDDB"/>
<path d="M128.066 135.243H129.066V136.243H128.066V135.243Z" fill="#C7CDDB"/>
<path d="M128.066 140.243H129.066V141.243H128.066V140.243Z" fill="#C7CDDB"/>
<path d="M128.066 145.243H129.066V146.243H128.066V145.243Z" fill="#C7CDDB"/>
<path d="M128.066 150.243H129.066V151.243H128.066V150.243Z" fill="#C7CDDB"/>
<path d="M128.066 155.243H129.066V156.243H128.066V155.243Z" fill="#C7CDDB"/>
<path d="M128.066 160.243H129.066V161.243H128.066V160.243Z" fill="#C7CDDB"/>
<path d="M128.066 165.243H129.066V166.243H128.066V165.243Z" fill="#C7CDDB"/>
<path d="M128.066 170.243H129.066V171.243H128.066V170.243Z" fill="#C7CDDB"/>
<path d="M128.066 175.243H129.066V176.243H128.066V175.243Z" fill="#C7CDDB"/>
<path d="M128.066 180.243H129.066V181.243H128.066V180.243Z" fill="#C7CDDB"/>
<path d="M133.066 105.243H134.066V106.243H133.066V105.243Z" fill="#C7CDDB"/>
<path d="M133.066 110.243H134.066V111.243H133.066V110.243Z" fill="#C7CDDB"/>
<path d="M133.066 115.243H134.066V116.243H133.066V115.243Z" fill="#C7CDDB"/>
<path d="M133.066 120.243H134.066V121.243H133.066V120.243Z" fill="#C7CDDB"/>
<path d="M133.066 125.243H134.066V126.243H133.066V125.243Z" fill="#C7CDDB"/>
<path d="M133.066 130.243H134.066V131.243H133.066V130.243Z" fill="#C7CDDB"/>
<path d="M133.066 135.243H134.066V136.243H133.066V135.243Z" fill="#C7CDDB"/>
<path d="M133.066 140.243H134.066V141.243H133.066V140.243Z" fill="#C7CDDB"/>
<path d="M133.066 145.243H134.066V146.243H133.066V145.243Z" fill="#C7CDDB"/>
<path d="M133.066 150.243H134.066V151.243H133.066V150.243Z" fill="#C7CDDB"/>
<path d="M133.066 155.243H134.066V156.243H133.066V155.243Z" fill="#C7CDDB"/>
<path d="M133.066 160.243H134.066V161.243H133.066V160.243Z" fill="#C7CDDB"/>
<path d="M133.066 165.243H134.066V166.243H133.066V165.243Z" fill="#C7CDDB"/>
<path d="M133.066 170.243H134.066V171.243H133.066V170.243Z" fill="#C7CDDB"/>
<path d="M133.066 175.243H134.066V176.243H133.066V175.243Z" fill="#C7CDDB"/>
<path d="M133.066 180.243H134.066V181.243H133.066V180.243Z" fill="#C7CDDB"/>
<path d="M138.066 105.243H139.066V106.243H138.066V105.243Z" fill="#C7CDDB"/>
<path d="M138.066 110.243H139.066V111.243H138.066V110.243Z" fill="#C7CDDB"/>
<path d="M138.066 115.243H139.066V116.243H138.066V115.243Z" fill="#C7CDDB"/>
<path d="M138.066 120.243H139.066V121.243H138.066V120.243Z" fill="#C7CDDB"/>
<path d="M138.066 125.243H139.066V126.243H138.066V125.243Z" fill="#C7CDDB"/>
<path d="M138.066 130.243H139.066V131.243H138.066V130.243Z" fill="#C7CDDB"/>
<path d="M138.066 135.243H139.066V136.243H138.066V135.243Z" fill="#C7CDDB"/>
<path d="M138.066 140.243H139.066V141.243H138.066V140.243Z" fill="#C7CDDB"/>
<path d="M138.066 145.243H139.066V146.243H138.066V145.243Z" fill="#C7CDDB"/>
<path d="M138.066 150.243H139.066V151.243H138.066V150.243Z" fill="#C7CDDB"/>
<path d="M138.066 155.243H139.066V156.243H138.066V155.243Z" fill="#C7CDDB"/>
<path d="M138.066 160.243H139.066V161.243H138.066V160.243Z" fill="#C7CDDB"/>
<path d="M138.066 165.243H139.066V166.243H138.066V165.243Z" fill="#C7CDDB"/>
<path d="M138.066 170.243H139.066V171.243H138.066V170.243Z" fill="#C7CDDB"/>
<path d="M138.066 175.243H139.066V176.243H138.066V175.243Z" fill="#C7CDDB"/>
<path d="M138.066 180.243H139.066V181.243H138.066V180.243Z" fill="#C7CDDB"/>
<path d="M143.066 105.243H144.066V106.243H143.066V105.243Z" fill="#C7CDDB"/>
<path d="M143.066 110.243H144.066V111.243H143.066V110.243Z" fill="#C7CDDB"/>
<path d="M143.066 115.243H144.066V116.243H143.066V115.243Z" fill="#C7CDDB"/>
<path d="M143.066 120.243H144.066V121.243H143.066V120.243Z" fill="#C7CDDB"/>
<path d="M143.066 125.243H144.066V126.243H143.066V125.243Z" fill="#C7CDDB"/>
<path d="M143.066 130.243H144.066V131.243H143.066V130.243Z" fill="#C7CDDB"/>
<path d="M143.066 135.243H144.066V136.243H143.066V135.243Z" fill="#C7CDDB"/>
<path d="M143.066 140.243H144.066V141.243H143.066V140.243Z" fill="#C7CDDB"/>
<path d="M143.066 145.243H144.066V146.243H143.066V145.243Z" fill="#C7CDDB"/>
<path d="M143.066 150.243H144.066V151.243H143.066V150.243Z" fill="#C7CDDB"/>
<path d="M143.066 155.243H144.066V156.243H143.066V155.243Z" fill="#C7CDDB"/>
<path d="M143.066 160.243H144.066V161.243H143.066V160.243Z" fill="#C7CDDB"/>
<path d="M143.066 165.243H144.066V166.243H143.066V165.243Z" fill="#C7CDDB"/>
<path d="M143.066 170.243H144.066V171.243H143.066V170.243Z" fill="#C7CDDB"/>
<path d="M143.066 175.243H144.066V176.243H143.066V175.243Z" fill="#C7CDDB"/>
<path d="M143.066 180.243H144.066V181.243H143.066V180.243Z" fill="#C7CDDB"/>
<path d="M148.066 105.243H149.066V106.243H148.066V105.243Z" fill="#C7CDDB"/>
<path d="M148.066 110.243H149.066V111.243H148.066V110.243Z" fill="#C7CDDB"/>
<path d="M148.066 115.243H149.066V116.243H148.066V115.243Z" fill="#C7CDDB"/>
<path d="M148.066 120.243H149.066V121.243H148.066V120.243Z" fill="#C7CDDB"/>
<path d="M148.066 125.243H149.066V126.243H148.066V125.243Z" fill="#C7CDDB"/>
<path d="M148.066 130.243H149.066V131.243H148.066V130.243Z" fill="#C7CDDB"/>
<path d="M148.066 135.243H149.066V136.243H148.066V135.243Z" fill="#C7CDDB"/>
<path d="M148.066 140.243H149.066V141.243H148.066V140.243Z" fill="#C7CDDB"/>
<path d="M148.066 145.243H149.066V146.243H148.066V145.243Z" fill="#C7CDDB"/>
<path d="M148.066 150.243H149.066V151.243H148.066V150.243Z" fill="#C7CDDB"/>
<path d="M148.066 155.243H149.066V156.243H148.066V155.243Z" fill="#C7CDDB"/>
<path d="M148.066 160.243H149.066V161.243H148.066V160.243Z" fill="#C7CDDB"/>
<path d="M148.066 165.243H149.066V166.243H148.066V165.243Z" fill="#C7CDDB"/>
<path d="M148.066 170.243H149.066V171.243H148.066V170.243Z" fill="#C7CDDB"/>
<path d="M148.066 175.243H149.066V176.243H148.066V175.243Z" fill="#C7CDDB"/>
<path d="M148.066 180.243H149.066V181.243H148.066V180.243Z" fill="#C7CDDB"/>
<path d="M153.066 105.243H154.066V106.243H153.066V105.243Z" fill="#C7CDDB"/>
<path d="M153.066 110.243H154.066V111.243H153.066V110.243Z" fill="#C7CDDB"/>
<path d="M153.066 115.243H154.066V116.243H153.066V115.243Z" fill="#C7CDDB"/>
<path d="M153.066 120.243H154.066V121.243H153.066V120.243Z" fill="#C7CDDB"/>
<path d="M153.066 125.243H154.066V126.243H153.066V125.243Z" fill="#C7CDDB"/>
<path d="M153.066 130.243H154.066V131.243H153.066V130.243Z" fill="#C7CDDB"/>
<path d="M153.066 135.243H154.066V136.243H153.066V135.243Z" fill="#C7CDDB"/>
<path d="M153.066 140.243H154.066V141.243H153.066V140.243Z" fill="#C7CDDB"/>
<path d="M153.066 145.243H154.066V146.243H153.066V145.243Z" fill="#C7CDDB"/>
<path d="M153.066 150.243H154.066V151.243H153.066V150.243Z" fill="#C7CDDB"/>
<path d="M153.066 155.243H154.066V156.243H153.066V155.243Z" fill="#C7CDDB"/>
<path d="M153.066 160.243H154.066V161.243H153.066V160.243Z" fill="#C7CDDB"/>
<path d="M153.066 165.243H154.066V166.243H153.066V165.243Z" fill="#C7CDDB"/>
<path d="M153.066 170.243H154.066V171.243H153.066V170.243Z" fill="#C7CDDB"/>
<path d="M153.066 175.243H154.066V176.243H153.066V175.243Z" fill="#C7CDDB"/>
<path d="M153.066 180.243H154.066V181.243H153.066V180.243Z" fill="#C7CDDB"/>
<path d="M158.066 105.243H159.066V106.243H158.066V105.243Z" fill="#C7CDDB"/>
<path d="M158.066 110.243H159.066V111.243H158.066V110.243Z" fill="#C7CDDB"/>
<path d="M158.066 115.243H159.066V116.243H158.066V115.243Z" fill="#C7CDDB"/>
<path d="M158.066 120.243H159.066V121.243H158.066V120.243Z" fill="#C7CDDB"/>
<path d="M158.066 125.243H159.066V126.243H158.066V125.243Z" fill="#C7CDDB"/>
<path d="M158.066 130.243H159.066V131.243H158.066V130.243Z" fill="#C7CDDB"/>
<path d="M158.066 135.243H159.066V136.243H158.066V135.243Z" fill="#C7CDDB"/>
<path d="M158.066 140.243H159.066V141.243H158.066V140.243Z" fill="#C7CDDB"/>
<path d="M158.066 145.243H159.066V146.243H158.066V145.243Z" fill="#C7CDDB"/>
<path d="M158.066 150.243H159.066V151.243H158.066V150.243Z" fill="#C7CDDB"/>
<path d="M158.066 155.243H159.066V156.243H158.066V155.243Z" fill="#C7CDDB"/>
<path d="M158.066 160.243H159.066V161.243H158.066V160.243Z" fill="#C7CDDB"/>
<path d="M158.066 165.243H159.066V166.243H158.066V165.243Z" fill="#C7CDDB"/>
<path d="M158.066 170.243H159.066V171.243H158.066V170.243Z" fill="#C7CDDB"/>
<path d="M158.066 175.243H159.066V176.243H158.066V175.243Z" fill="#C7CDDB"/>
<path d="M158.066 180.243H159.066V181.243H158.066V180.243Z" fill="#C7CDDB"/>
<path d="M163.066 105.243H164.066V106.243H163.066V105.243Z" fill="#C7CDDB"/>
<path d="M163.066 110.243H164.066V111.243H163.066V110.243Z" fill="#C7CDDB"/>
<path d="M163.066 115.243H164.066V116.243H163.066V115.243Z" fill="#C7CDDB"/>
<path d="M163.066 120.243H164.066V121.243H163.066V120.243Z" fill="#C7CDDB"/>
<path d="M163.066 125.243H164.066V126.243H163.066V125.243Z" fill="#C7CDDB"/>
<path d="M163.066 130.243H164.066V131.243H163.066V130.243Z" fill="#C7CDDB"/>
<path d="M163.066 135.243H164.066V136.243H163.066V135.243Z" fill="#C7CDDB"/>
<path d="M163.066 140.243H164.066V141.243H163.066V140.243Z" fill="#C7CDDB"/>
<path d="M163.066 145.243H164.066V146.243H163.066V145.243Z" fill="#C7CDDB"/>
<path d="M163.066 150.243H164.066V151.243H163.066V150.243Z" fill="#C7CDDB"/>
<path d="M163.066 155.243H164.066V156.243H163.066V155.243Z" fill="#C7CDDB"/>
<path d="M163.066 160.243H164.066V161.243H163.066V160.243Z" fill="#C7CDDB"/>
<path d="M163.066 165.243H164.066V166.243H163.066V165.243Z" fill="#C7CDDB"/>
<path d="M163.066 170.243H164.066V171.243H163.066V170.243Z" fill="#C7CDDB"/>
<path d="M163.066 175.243H164.066V176.243H163.066V175.243Z" fill="#C7CDDB"/>
<path d="M163.066 180.243H164.066V181.243H163.066V180.243Z" fill="#C7CDDB"/>
<path d="M168.066 105.243H169.066V106.243H168.066V105.243Z" fill="#C7CDDB"/>
<path d="M168.066 110.243H169.066V111.243H168.066V110.243Z" fill="#C7CDDB"/>
<path d="M168.066 115.243H169.066V116.243H168.066V115.243Z" fill="#C7CDDB"/>
<path d="M168.066 120.243H169.066V121.243H168.066V120.243Z" fill="#C7CDDB"/>
<path d="M168.066 125.243H169.066V126.243H168.066V125.243Z" fill="#C7CDDB"/>
<path d="M168.066 130.243H169.066V131.243H168.066V130.243Z" fill="#C7CDDB"/>
<path d="M168.066 135.243H169.066V136.243H168.066V135.243Z" fill="#C7CDDB"/>
<path d="M168.066 140.243H169.066V141.243H168.066V140.243Z" fill="#C7CDDB"/>
<path d="M168.066 145.243H169.066V146.243H168.066V145.243Z" fill="#C7CDDB"/>
<path d="M168.066 150.243H169.066V151.243H168.066V150.243Z" fill="#C7CDDB"/>
<path d="M168.066 155.243H169.066V156.243H168.066V155.243Z" fill="#C7CDDB"/>
<path d="M168.066 160.243H169.066V161.243H168.066V160.243Z" fill="#C7CDDB"/>
<path d="M168.066 165.243H169.066V166.243H168.066V165.243Z" fill="#C7CDDB"/>
<path d="M168.066 170.243H169.066V171.243H168.066V170.243Z" fill="#C7CDDB"/>
<path d="M168.066 175.243H169.066V176.243H168.066V175.243Z" fill="#C7CDDB"/>
<path d="M168.066 180.243H169.066V181.243H168.066V180.243Z" fill="#C7CDDB"/>
<path d="M173.066 105.243H174.066V106.243H173.066V105.243Z" fill="#C7CDDB"/>
<path d="M173.066 110.243H174.066V111.243H173.066V110.243Z" fill="#C7CDDB"/>
<path d="M173.066 115.243H174.066V116.243H173.066V115.243Z" fill="#C7CDDB"/>
<path d="M173.066 120.243H174.066V121.243H173.066V120.243Z" fill="#C7CDDB"/>
<path d="M173.066 125.243H174.066V126.243H173.066V125.243Z" fill="#C7CDDB"/>
<path d="M173.066 130.243H174.066V131.243H173.066V130.243Z" fill="#C7CDDB"/>
<path d="M173.066 135.243H174.066V136.243H173.066V135.243Z" fill="#C7CDDB"/>
<path d="M173.066 140.243H174.066V141.243H173.066V140.243Z" fill="#C7CDDB"/>
<path d="M173.066 145.243H174.066V146.243H173.066V145.243Z" fill="#C7CDDB"/>
<path d="M173.066 150.243H174.066V151.243H173.066V150.243Z" fill="#C7CDDB"/>
<path d="M173.066 155.243H174.066V156.243H173.066V155.243Z" fill="#C7CDDB"/>
<path d="M173.066 160.243H174.066V161.243H173.066V160.243Z" fill="#C7CDDB"/>
<path d="M173.066 165.243H174.066V166.243H173.066V165.243Z" fill="#C7CDDB"/>
<path d="M173.066 170.243H174.066V171.243H173.066V170.243Z" fill="#C7CDDB"/>
<path d="M173.066 175.243H174.066V176.243H173.066V175.243Z" fill="#C7CDDB"/>
<path d="M173.066 180.243H174.066V181.243H173.066V180.243Z" fill="#C7CDDB"/>
<path d="M178.066 105.243H179.066V106.243H178.066V105.243Z" fill="#C7CDDB"/>
<path d="M178.066 110.243H179.066V111.243H178.066V110.243Z" fill="#C7CDDB"/>
<path d="M178.066 115.243H179.066V116.243H178.066V115.243Z" fill="#C7CDDB"/>
<path d="M178.066 120.243H179.066V121.243H178.066V120.243Z" fill="#C7CDDB"/>
<path d="M178.066 125.243H179.066V126.243H178.066V125.243Z" fill="#C7CDDB"/>
<path d="M178.066 130.243H179.066V131.243H178.066V130.243Z" fill="#C7CDDB"/>
<path d="M178.066 135.243H179.066V136.243H178.066V135.243Z" fill="#C7CDDB"/>
<path d="M178.066 140.243H179.066V141.243H178.066V140.243Z" fill="#C7CDDB"/>
<path d="M178.066 145.243H179.066V146.243H178.066V145.243Z" fill="#C7CDDB"/>
<path d="M178.066 150.243H179.066V151.243H178.066V150.243Z" fill="#C7CDDB"/>
<path d="M178.066 155.243H179.066V156.243H178.066V155.243Z" fill="#C7CDDB"/>
<path d="M178.066 160.243H179.066V161.243H178.066V160.243Z" fill="#C7CDDB"/>
<path d="M178.066 165.243H179.066V166.243H178.066V165.243Z" fill="#C7CDDB"/>
<path d="M178.066 170.243H179.066V171.243H178.066V170.243Z" fill="#C7CDDB"/>
<path d="M178.066 175.243H179.066V176.243H178.066V175.243Z" fill="#C7CDDB"/>
<path d="M178.066 180.243H179.066V181.243H178.066V180.243Z" fill="#C7CDDB"/>
<path d="M183.066 105.243H184.066V106.243H183.066V105.243Z" fill="#C7CDDB"/>
<path d="M183.066 110.243H184.066V111.243H183.066V110.243Z" fill="#C7CDDB"/>
<path d="M183.066 115.243H184.066V116.243H183.066V115.243Z" fill="#C7CDDB"/>
<path d="M183.066 120.243H184.066V121.243H183.066V120.243Z" fill="#C7CDDB"/>
<path d="M183.066 125.243H184.066V126.243H183.066V125.243Z" fill="#C7CDDB"/>
<path d="M183.066 130.243H184.066V131.243H183.066V130.243Z" fill="#C7CDDB"/>
<path d="M183.066 135.243H184.066V136.243H183.066V135.243Z" fill="#C7CDDB"/>
<path d="M183.066 140.243H184.066V141.243H183.066V140.243Z" fill="#C7CDDB"/>
<path d="M183.066 145.243H184.066V146.243H183.066V145.243Z" fill="#C7CDDB"/>
<path d="M183.066 150.243H184.066V151.243H183.066V150.243Z" fill="#C7CDDB"/>
<path d="M183.066 155.243H184.066V156.243H183.066V155.243Z" fill="#C7CDDB"/>
<path d="M183.066 160.243H184.066V161.243H183.066V160.243Z" fill="#C7CDDB"/>
<path d="M183.066 165.243H184.066V166.243H183.066V165.243Z" fill="#C7CDDB"/>
<path d="M183.066 170.243H184.066V171.243H183.066V170.243Z" fill="#C7CDDB"/>
<path d="M183.066 175.243H184.066V176.243H183.066V175.243Z" fill="#C7CDDB"/>
<path d="M183.066 180.243H184.066V181.243H183.066V180.243Z" fill="#C7CDDB"/>
<path d="M188.066 105.243H189.066V106.243H188.066V105.243Z" fill="#C7CDDB"/>
<path d="M188.066 110.243H189.066V111.243H188.066V110.243Z" fill="#C7CDDB"/>
<path d="M188.066 115.243H189.066V116.243H188.066V115.243Z" fill="#C7CDDB"/>
<path d="M188.066 120.243H189.066V121.243H188.066V120.243Z" fill="#C7CDDB"/>
<path d="M188.066 125.243H189.066V126.243H188.066V125.243Z" fill="#C7CDDB"/>
<path d="M188.066 130.243H189.066V131.243H188.066V130.243Z" fill="#C7CDDB"/>
<path d="M188.066 135.243H189.066V136.243H188.066V135.243Z" fill="#C7CDDB"/>
<path d="M188.066 140.243H189.066V141.243H188.066V140.243Z" fill="#C7CDDB"/>
<path d="M188.066 145.243H189.066V146.243H188.066V145.243Z" fill="#C7CDDB"/>
<path d="M188.066 150.243H189.066V151.243H188.066V150.243Z" fill="#C7CDDB"/>
<path d="M188.066 155.243H189.066V156.243H188.066V155.243Z" fill="#C7CDDB"/>
<path d="M188.066 160.243H189.066V161.243H188.066V160.243Z" fill="#C7CDDB"/>
<path d="M188.066 165.243H189.066V166.243H188.066V165.243Z" fill="#C7CDDB"/>
<path d="M188.066 170.243H189.066V171.243H188.066V170.243Z" fill="#C7CDDB"/>
<path d="M188.066 175.243H189.066V176.243H188.066V175.243Z" fill="#C7CDDB"/>
<path d="M188.066 180.243H189.066V181.243H188.066V180.243Z" fill="#C7CDDB"/>
<path d="M193.066 105.243H194.066V106.243H193.066V105.243Z" fill="#C7CDDB"/>
<path d="M193.066 110.243H194.066V111.243H193.066V110.243Z" fill="#C7CDDB"/>
<path d="M193.066 115.243H194.066V116.243H193.066V115.243Z" fill="#C7CDDB"/>
<path d="M193.066 120.243H194.066V121.243H193.066V120.243Z" fill="#C7CDDB"/>
<path d="M193.066 125.243H194.066V126.243H193.066V125.243Z" fill="#C7CDDB"/>
<path d="M193.066 130.243H194.066V131.243H193.066V130.243Z" fill="#C7CDDB"/>
<path d="M193.066 135.243H194.066V136.243H193.066V135.243Z" fill="#C7CDDB"/>
<path d="M193.066 140.243H194.066V141.243H193.066V140.243Z" fill="#C7CDDB"/>
<path d="M193.066 145.243H194.066V146.243H193.066V145.243Z" fill="#C7CDDB"/>
<path d="M193.066 150.243H194.066V151.243H193.066V150.243Z" fill="#C7CDDB"/>
<path d="M193.066 155.243H194.066V156.243H193.066V155.243Z" fill="#C7CDDB"/>
<path d="M193.066 160.243H194.066V161.243H193.066V160.243Z" fill="#C7CDDB"/>
<path d="M193.066 165.243H194.066V166.243H193.066V165.243Z" fill="#C7CDDB"/>
<path d="M193.066 170.243H194.066V171.243H193.066V170.243Z" fill="#C7CDDB"/>
<path d="M193.066 175.243H194.066V176.243H193.066V175.243Z" fill="#C7CDDB"/>
<path d="M193.066 180.243H194.066V181.243H193.066V180.243Z" fill="#C7CDDB"/>
<path d="M198.066 105.243H199.066V106.243H198.066V105.243Z" fill="#C7CDDB"/>
<path d="M198.066 110.243H199.066V111.243H198.066V110.243Z" fill="#C7CDDB"/>
<path d="M198.066 115.243H199.066V116.243H198.066V115.243Z" fill="#C7CDDB"/>
<path d="M198.066 120.243H199.066V121.243H198.066V120.243Z" fill="#C7CDDB"/>
<path d="M198.066 125.243H199.066V126.243H198.066V125.243Z" fill="#C7CDDB"/>
<path d="M198.066 130.243H199.066V131.243H198.066V130.243Z" fill="#C7CDDB"/>
<path d="M198.066 135.243H199.066V136.243H198.066V135.243Z" fill="#C7CDDB"/>
<path d="M198.066 140.243H199.066V141.243H198.066V140.243Z" fill="#C7CDDB"/>
<path d="M198.066 145.243H199.066V146.243H198.066V145.243Z" fill="#C7CDDB"/>
<path d="M198.066 150.243H199.066V151.243H198.066V150.243Z" fill="#C7CDDB"/>
<path d="M198.066 155.243H199.066V156.243H198.066V155.243Z" fill="#C7CDDB"/>
<path d="M198.066 160.243H199.066V161.243H198.066V160.243Z" fill="#C7CDDB"/>
<path d="M198.066 165.243H199.066V166.243H198.066V165.243Z" fill="#C7CDDB"/>
<path d="M198.066 170.243H199.066V171.243H198.066V170.243Z" fill="#C7CDDB"/>
<path d="M198.066 175.243H199.066V176.243H198.066V175.243Z" fill="#C7CDDB"/>
<path d="M198.066 180.243H199.066V181.243H198.066V180.243Z" fill="#C7CDDB"/>
<path d="M203.066 105.243H204.066V106.243H203.066V105.243Z" fill="#C7CDDB"/>
<path d="M203.066 110.243H204.066V111.243H203.066V110.243Z" fill="#C7CDDB"/>
<path d="M203.066 115.243H204.066V116.243H203.066V115.243Z" fill="#C7CDDB"/>
<path d="M203.066 120.243H204.066V121.243H203.066V120.243Z" fill="#C7CDDB"/>
<path d="M203.066 125.243H204.066V126.243H203.066V125.243Z" fill="#C7CDDB"/>
<path d="M203.066 130.243H204.066V131.243H203.066V130.243Z" fill="#C7CDDB"/>
<path d="M203.066 135.243H204.066V136.243H203.066V135.243Z" fill="#C7CDDB"/>
<path d="M203.066 140.243H204.066V141.243H203.066V140.243Z" fill="#C7CDDB"/>
<path d="M203.066 145.243H204.066V146.243H203.066V145.243Z" fill="#C7CDDB"/>
<path d="M203.066 150.243H204.066V151.243H203.066V150.243Z" fill="#C7CDDB"/>
<path d="M203.066 155.243H204.066V156.243H203.066V155.243Z" fill="#C7CDDB"/>
<path d="M203.066 160.243H204.066V161.243H203.066V160.243Z" fill="#C7CDDB"/>
<path d="M203.066 165.243H204.066V166.243H203.066V165.243Z" fill="#C7CDDB"/>
<path d="M203.066 170.243H204.066V171.243H203.066V170.243Z" fill="#C7CDDB"/>
<path d="M203.066 175.243H204.066V176.243H203.066V175.243Z" fill="#C7CDDB"/>
<path d="M203.066 180.243H204.066V181.243H203.066V180.243Z" fill="#C7CDDB"/>
<path d="M208.066 105.243H209.066V106.243H208.066V105.243Z" fill="#C7CDDB"/>
<path d="M208.066 110.243H209.066V111.243H208.066V110.243Z" fill="#C7CDDB"/>
<path d="M208.066 115.243H209.066V116.243H208.066V115.243Z" fill="#C7CDDB"/>
<path d="M208.066 120.243H209.066V121.243H208.066V120.243Z" fill="#C7CDDB"/>
<path d="M208.066 125.243H209.066V126.243H208.066V125.243Z" fill="#C7CDDB"/>
<path d="M208.066 130.243H209.066V131.243H208.066V130.243Z" fill="#C7CDDB"/>
<path d="M208.066 135.243H209.066V136.243H208.066V135.243Z" fill="#C7CDDB"/>
<path d="M208.066 140.243H209.066V141.243H208.066V140.243Z" fill="#C7CDDB"/>
<path d="M208.066 145.243H209.066V146.243H208.066V145.243Z" fill="#C7CDDB"/>
<path d="M208.066 150.243H209.066V151.243H208.066V150.243Z" fill="#C7CDDB"/>
<path d="M208.066 155.243H209.066V156.243H208.066V155.243Z" fill="#C7CDDB"/>
<path d="M208.066 160.243H209.066V161.243H208.066V160.243Z" fill="#C7CDDB"/>
<path d="M208.066 165.243H209.066V166.243H208.066V165.243Z" fill="#C7CDDB"/>
<path d="M208.066 170.243H209.066V171.243H208.066V170.243Z" fill="#C7CDDB"/>
<path d="M208.066 175.243H209.066V176.243H208.066V175.243Z" fill="#C7CDDB"/>
<path d="M208.066 180.243H209.066V181.243H208.066V180.243Z" fill="#C7CDDB"/>
<path d="M213.066 105.243H214.066V106.243H213.066V105.243Z" fill="#C7CDDB"/>
<path d="M213.066 110.243H214.066V111.243H213.066V110.243Z" fill="#C7CDDB"/>
<path d="M213.066 115.243H214.066V116.243H213.066V115.243Z" fill="#C7CDDB"/>
<path d="M213.066 120.243H214.066V121.243H213.066V120.243Z" fill="#C7CDDB"/>
<path d="M213.066 125.243H214.066V126.243H213.066V125.243Z" fill="#C7CDDB"/>
<path d="M213.066 130.243H214.066V131.243H213.066V130.243Z" fill="#C7CDDB"/>
<path d="M213.066 135.243H214.066V136.243H213.066V135.243Z" fill="#C7CDDB"/>
<path d="M213.066 140.243H214.066V141.243H213.066V140.243Z" fill="#C7CDDB"/>
<path d="M213.066 145.243H214.066V146.243H213.066V145.243Z" fill="#C7CDDB"/>
<path d="M213.066 150.243H214.066V151.243H213.066V150.243Z" fill="#C7CDDB"/>
<path d="M213.066 155.243H214.066V156.243H213.066V155.243Z" fill="#C7CDDB"/>
<path d="M213.066 160.243H214.066V161.243H213.066V160.243Z" fill="#C7CDDB"/>
<path d="M213.066 165.243H214.066V166.243H213.066V165.243Z" fill="#C7CDDB"/>
<path d="M213.066 170.243H214.066V171.243H213.066V170.243Z" fill="#C7CDDB"/>
<path d="M213.066 175.243H214.066V176.243H213.066V175.243Z" fill="#C7CDDB"/>
<path d="M213.066 180.243H214.066V181.243H213.066V180.243Z" fill="#C7CDDB"/>
<path d="M218.066 105.243H219.066V106.243H218.066V105.243Z" fill="#C7CDDB"/>
<path d="M218.066 110.243H219.066V111.243H218.066V110.243Z" fill="#C7CDDB"/>
<path d="M218.066 115.243H219.066V116.243H218.066V115.243Z" fill="#C7CDDB"/>
<path d="M218.066 120.243H219.066V121.243H218.066V120.243Z" fill="#C7CDDB"/>
<path d="M218.066 125.243H219.066V126.243H218.066V125.243Z" fill="#C7CDDB"/>
<path d="M218.066 130.243H219.066V131.243H218.066V130.243Z" fill="#C7CDDB"/>
<path d="M218.066 135.243H219.066V136.243H218.066V135.243Z" fill="#C7CDDB"/>
<path d="M218.066 140.243H219.066V141.243H218.066V140.243Z" fill="#C7CDDB"/>
<path d="M218.066 145.243H219.066V146.243H218.066V145.243Z" fill="#C7CDDB"/>
<path d="M218.066 150.243H219.066V151.243H218.066V150.243Z" fill="#C7CDDB"/>
<path d="M218.066 155.243H219.066V156.243H218.066V155.243Z" fill="#C7CDDB"/>
<path d="M218.066 160.243H219.066V161.243H218.066V160.243Z" fill="#C7CDDB"/>
<path d="M218.066 165.243H219.066V166.243H218.066V165.243Z" fill="#C7CDDB"/>
<path d="M218.066 170.243H219.066V171.243H218.066V170.243Z" fill="#C7CDDB"/>
<path d="M218.066 175.243H219.066V176.243H218.066V175.243Z" fill="#C7CDDB"/>
<path d="M218.066 180.243H219.066V181.243H218.066V180.243Z" fill="#C7CDDB"/>
<path d="M118.008 33.3025C117.815 32.9885 117.545 32.7291 117.223 32.5491C116.902 32.3693 116.539 32.2747 116.171 32.2747C115.802 32.2747 115.439 32.3693 115.118 32.5491C114.796 32.7291 114.526 32.9885 114.333 33.3025C107.472 44.536 83.8015 84.189 83.8015 99.3687C83.8015 107.951 87.2124 116.182 93.2837 122.251C99.355 128.32 107.59 131.729 116.176 131.729C124.762 131.729 132.997 128.32 139.068 122.251C145.139 116.182 148.55 107.951 148.55 99.3687C148.541 84.1907 124.866 44.5325 118.008 33.3025Z" fill="#FFFAC9"/>
<path d="M118.008 33.3025C117.815 32.9885 117.545 32.7291 117.223 32.5491C116.902 32.3693 116.539 32.2747 116.171 32.2747C115.802 32.2747 115.439 32.3693 115.118 32.5491C114.796 32.7291 114.526 32.9885 114.333 33.3025C107.472 44.536 83.8015 84.189 83.8015 99.3687C83.8015 107.951 87.2124 116.182 93.2837 122.251C99.355 128.32 107.59 131.729 116.176 131.729C124.762 131.729 132.997 128.32 139.068 122.251C145.139 116.182 148.55 107.951 148.55 99.3687C148.541 84.1907 124.866 44.5325 118.008 33.3025Z" stroke="#14171F" stroke-width="2.4" stroke-linecap="round" stroke-linejoin="round"/>
<path d="M98.7899 96.3967C99.2299 99.9142 100.624 103.244 102.821 106.027C105.018 108.81 107.935 110.938 111.255 112.183L111.913 112.43" stroke="white" stroke-width="2" stroke-linecap="round" stroke-linejoin="round"/>
<path d="M175.41 116.549L169.26 122.697L180.021 133.454L186.171 127.307L175.41 116.549Z" fill="white" stroke="#14171F" stroke-width="2.4" stroke-linecap="round" stroke-linejoin="round"/>
<path d="M207.076 154.062L206.786 154.354C205.598 155.529 203.994 156.188 202.323 156.188C200.652 156.188 199.048 155.529 197.861 154.354L178.436 134.937C178.044 134.542 177.824 134.008 177.824 133.451C177.824 132.894 178.044 132.359 178.436 131.964L184.685 125.719C185.081 125.326 185.615 125.106 186.173 125.106C186.73 125.106 187.265 125.326 187.66 125.719L207.085 145.135C207.672 145.721 208.138 146.417 208.456 147.183C208.774 147.95 208.937 148.771 208.936 149.6C208.935 150.43 208.771 151.251 208.451 152.016C208.132 152.782 207.665 153.477 207.076 154.062Z" fill="#FFFAC9"/>
<path d="M207.076 154.062L206.786 154.354C205.598 155.529 203.994 156.188 202.323 156.188C200.652 156.188 199.048 155.529 197.861 154.354L178.436 134.937C178.044 134.542 177.824 134.008 177.824 133.451C177.824 132.894 178.044 132.359 178.436 131.964L184.685 125.719C185.081 125.326 185.615 125.106 186.173 125.106C186.73 125.106 187.265 125.326 187.66 125.719L207.085 145.135C207.672 145.721 208.138 146.417 208.456 147.183C208.774 147.95 208.937 148.771 208.936 149.6C208.935 150.43 208.771 151.251 208.451 152.016C208.132 152.782 207.665 153.477 207.076 154.062Z" stroke="#14171F" stroke-width="2.4" stroke-linecap="round" stroke-linejoin="round"/>
<path d="M167.834 127.452C183.199 118.054 188.032 97.9851 178.63 82.6269C169.228 67.2688 149.15 62.4373 133.785 71.8355C118.421 81.2337 113.587 101.303 122.989 116.661C132.391 132.019 152.469 136.85 167.834 127.452Z" fill="white" stroke="#14171F" stroke-width="2.4" stroke-linecap="round" stroke-linejoin="round"/>
<path d="M169.259 81.2034C172.908 84.8509 175.393 89.498 176.4 94.5573C177.407 99.6163 176.89 104.86 174.915 109.626C172.94 114.392 169.596 118.465 165.305 121.331C161.015 124.197 155.97 125.726 150.809 125.726C145.649 125.726 140.604 124.197 136.313 121.331C132.023 118.465 128.678 114.392 126.703 109.626C124.729 104.86 124.212 99.6163 125.219 94.5573C126.226 89.498 128.711 84.8509 132.36 81.2034C134.782 78.7811 137.658 76.8597 140.824 75.5487C143.99 74.2377 147.383 73.563 150.809 73.563C154.236 73.563 157.629 74.2377 160.795 75.5487C163.96 76.8597 166.837 78.7811 169.259 81.2034Z" stroke="#14171F" stroke-width="2.4" stroke-linecap="round" stroke-linejoin="round"/>
<path d="M143.685 74.5488C138.249 76.0939 133.461 79.3611 130.041 83.8594C126.621 88.3578 124.755 93.8441 124.723 99.4937C124.69 105.143 126.493 110.651 129.86 115.188C133.228 119.725 137.978 123.048 143.396 124.655C149.045 118.191 152.154 109.897 152.146 101.314C152.141 95.1021 148.573 85.2016 143.685 74.5488Z" fill="#FFFAC9" stroke="#14171F" stroke-width="2.4" stroke-linecap="round" stroke-linejoin="round"/>
</g>
<defs>
<filter id="filter0_f_2902_7231" x="6.71326" y="-68.6536" width="273.901" height="259.101" filterUnits="userSpaceOnUse" color-interpolation-filters="sRGB">
<feFlood flood-opacity="0" result="BackgroundImageFix"/>
<feBlend mode="normal" in="SourceGraphic" in2="BackgroundImageFix" result="shape"/>
<feGaussianBlur stdDeviation="58" result="effect1_foregroundBlur_2902_7231"/>
</filter>
<clipPath id="clip0_2902_7231">
<rect width="267" height="200" fill="white"/>
</clipPath>
</defs>
</svg>
