<svg width="32" height="32" viewBox="0 0 32 32" fill="none" xmlns="http://www.w3.org/2000/svg">
<path d="M25.6 1.6001V6.4001H30.4V8.0001H25.6V12.8001H24V8.0001H19.2V6.4001H24V1.6001H25.6ZM14.4 9.6001C12.64 9.6001 11.2 11.0401 11.2 12.8001C11.2 14.5601 12.64 16.0001 14.4 16.0001C16.16 16.0001 17.6 14.5601 17.6 12.8001C17.6 11.0401 16.16 9.6001 14.4 9.6001ZM14.4 8.0001C17.12 8.0001 19.2 10.0801 19.2 12.8001C19.2 15.5201 17.12 17.6001 14.4 17.6001C11.68 17.6001 9.6 15.5201 9.6 12.8001C9.6 10.0801 11.68 8.0001 14.4 8.0001ZM14.4 20.8001C9.12 20.8001 4.96 23.0401 4.8 25.4401V25.6001V27.2001H24V25.6001C24 23.2001 20 20.9601 14.88 20.8001H14.4ZM14.4 19.2001C20.48 19.2001 25.44 21.9201 25.6 25.2801V25.6001V28.8001H3.2V25.6001C3.2 22.0801 8.16 19.2001 14.4 19.2001Z" fill="#182020"/>
</svg>
