<svg width="32" height="32" viewBox="0 0 32 32" fill="none" xmlns="http://www.w3.org/2000/svg">
<g clip-path="url(#clip0_2902_7224)">
<path d="M20.96 4.96117C19.04 3.36117 16.64 2.88117 14.24 3.36117C11.2 4.00117 8.64001 6.56117 8.16001 9.76117C7.68001 12.4812 8.64001 15.3612 10.72 17.1212C11.52 17.9212 12 18.8812 12 20.1612V24.0012C12 25.2812 13.12 26.4012 14.4 26.4012C14.4 27.3612 15.04 28.0012 16 28.0012C16.96 28.0012 17.6 27.3612 17.6 26.4012C18.88 26.4012 20 25.2812 20 24.0012V20.1612C20 19.0412 20.48 17.9212 21.28 17.1212C23.04 15.6812 24 13.4412 24 11.2012C24 8.80117 22.88 6.56117 20.96 4.96117ZM17.6 24.8012H14.4C13.92 24.8012 13.6 24.4812 13.6 24.0012V21.6012H18.4V24.0012C18.4 24.4812 18.08 24.8012 17.6 24.8012ZM20.32 16.0012C19.2 16.9612 18.56 18.5612 18.4 20.0012H13.6C13.6 18.4012 12.96 16.9612 11.68 16.0012C10.08 14.4012 9.28001 12.1612 9.76001 9.92117C10.24 7.36117 12.16 5.44117 14.72 4.80117C15.04 4.80117 15.52 4.80117 16 4.80117C17.44 4.80117 18.88 5.28117 20 6.24117C21.6 7.52117 22.4 9.28117 22.4 11.2012C22.4 12.9612 21.6 14.7212 20.32 16.0012Z" fill="#182020"/>
</g>
<defs>
<clipPath id="clip0_2902_7224">
<rect width="16" height="24.8" fill="white" transform="translate(8 3.19995)"/>
</clipPath>
</defs>
</svg>
