<svg width="32" height="32" viewBox="0 0 32 32" fill="none" xmlns="http://www.w3.org/2000/svg">
<path d="M17.6 4.79995H14.4C14.08 4.79995 13.76 5.11995 13.6 5.43995V5.59995V6.39995H18.4V5.59995C18.4 5.27995 18.08 4.95995 17.6 4.79995ZM14.4 11.2V22.4H12.8V11.2H14.4ZM19.2 11.2V22.4H17.6V11.2H19.2ZM22.4 7.99995H9.59999V23.2C9.59999 24.48 10.56 25.44 11.84 25.6H12H20C21.28 25.6 22.24 24.64 22.4 23.36V23.2V7.99995ZM17.6 3.19995C18.88 3.19995 19.84 4.15995 20 5.43995V5.59995V6.39995H25.6V7.99995H24V23.2C24 25.28 22.4 27.04 20.32 27.2H20H12C9.91999 27.2 8.15999 25.6 7.99999 23.52V23.2V7.99995H6.39999V6.39995H12V5.59995C12 4.31995 12.96 3.35995 14.24 3.19995H14.4H17.6Z" fill="#182020"/>
</svg>
