<svg width="32" height="32" viewBox="0 0 32 32" fill="none" xmlns="http://www.w3.org/2000/svg">
<path fill-rule="evenodd" clip-rule="evenodd" d="M9.59999 8.8001C9.59999 9.68375 8.88364 10.4001 7.99999 10.4001C7.11633 10.4001 6.39999 9.68375 6.39999 8.8001C6.39999 7.91644 7.11633 7.2001 7.99999 7.2001C8.88364 7.2001 9.59999 7.91644 9.59999 8.8001ZM11.2 8.8001C11.2 10.5674 9.7673 12.0001 7.99999 12.0001C6.23268 12.0001 4.79999 10.5674 4.79999 8.8001C4.79999 7.03279 6.23268 5.6001 7.99999 5.6001C9.7673 5.6001 11.2 7.03279 11.2 8.8001ZM14.4 8.0001H25.6V9.6001H14.4V8.0001ZM25.6 16.0001H14.4V17.6001H25.6V16.0001ZM25.6 24.0001H14.4V25.6001H25.6V24.0001ZM9.59999 16.8001C9.59999 17.6838 8.88364 18.4001 7.99999 18.4001C7.11633 18.4001 6.39999 17.6838 6.39999 16.8001C6.39999 15.9164 7.11633 15.2001 7.99999 15.2001C8.88364 15.2001 9.59999 15.9164 9.59999 16.8001ZM11.2 16.8001C11.2 18.5674 9.7673 20.0001 7.99999 20.0001C6.23268 20.0001 4.79999 18.5674 4.79999 16.8001C4.79999 15.0328 6.23268 13.6001 7.99999 13.6001C9.7673 13.6001 11.2 15.0328 11.2 16.8001ZM7.99999 26.4001C8.88364 26.4001 9.59999 25.6838 9.59999 24.8001C9.59999 23.9164 8.88364 23.2001 7.99999 23.2001C7.11633 23.2001 6.39999 23.9164 6.39999 24.8001C6.39999 25.6838 7.11633 26.4001 7.99999 26.4001ZM7.99999 28.0001C9.7673 28.0001 11.2 26.5674 11.2 24.8001C11.2 23.0328 9.7673 21.6001 7.99999 21.6001C6.23268 21.6001 4.79999 23.0328 4.79999 24.8001C4.79999 26.5674 6.23268 28.0001 7.99999 28.0001Z" fill="#182020"/>
</svg>
