<svg width="32" height="32" viewBox="0 0 32 32" fill="none" xmlns="http://www.w3.org/2000/svg">
<path d="M24.16 7.83997C23.52 7.19997 22.72 7.19997 22.08 7.83997L18.24 11.68L17.6 11.04C16.96 10.4 16.16 10.4 15.52 11.04L14.72 12L20 17.28L20.96 16.32C21.44 15.84 21.6 15.04 21.12 14.56L20.96 14.4L20.32 13.6L24 9.91997C24.8 9.27997 24.8 8.31997 24.16 7.83997ZM15.2 14.72L7.84001 22.08C7.20001 22.72 7.20001 23.52 7.84001 24.16C8.32001 24.64 9.12001 24.8 9.76001 24.32L9.92001 24.16L17.28 16.8L15.2 14.72ZM20.96 6.55997C22.08 5.43997 24.16 5.43997 25.28 6.55997C26.4 7.67997 26.4 9.75997 25.28 10.88L22.56 13.6C23.2 14.72 23.04 16 22.24 17.12L22.08 17.28L19.84 19.52L18.24 17.92L10.88 25.28C9.76001 26.4 7.68001 26.4 6.56001 25.28C5.44001 24.16 5.44001 22.4 6.40001 21.28L6.56001 21.12L13.92 13.76L12.32 12.16L14.56 9.91997C15.52 8.95997 17.12 8.79997 18.24 9.43997L20.96 6.55997Z" fill="#182020"/>
</svg>
