<svg width="32" height="32" viewBox="0 0 32 32" fill="none" xmlns="http://www.w3.org/2000/svg">
<path d="M17.6 14.4C17.6 15.2837 16.8836 16 16 16C15.1163 16 14.4 15.2837 14.4 14.4C14.4 13.5163 15.1163 12.8 16 12.8C16.8836 12.8 17.6 13.5163 17.6 14.4Z" fill="#182020"/>
<path fill-rule="evenodd" clip-rule="evenodd" d="M16.5536 5.0224L16.0001 4.49194L15.4465 5.0224C12.6439 7.70831 10.6138 11.8678 10.4155 17.1383L6.39999 22.1176V27.4987L12.2858 25.6H19.7141L25.5999 27.4987V22.1176L21.5098 17.0458C21.2881 11.8259 19.3452 7.69773 16.5536 5.0224ZM11.1962 24.2703C10.7989 22.6567 10.559 21.1097 10.457 19.6356L7.99999 22.6824V25.3013L11.1962 24.2703ZM23.9999 25.3013L20.7924 24.2666C21.1692 22.6286 21.3943 21.0585 21.4848 19.5636L23.9999 22.6824V25.3013ZM15.9994 6.74306C12.8009 10.2157 10.818 16.1789 12.7776 24H19.2118C21.0403 16.1663 19.176 10.2076 15.9994 6.74306Z" fill="#182020"/>
</svg>
