<svg width="32" height="32" viewBox="0 0 32 32" fill="none" xmlns="http://www.w3.org/2000/svg">
<path d="M16 7.19995C20.32 7.19995 24 10.08 25.28 14.24L23.68 14.72C22.72 11.2 19.52 8.79995 16 8.79995C13.12 8.79995 10.56 10.4 9.11999 12.8H12.8V14.4H6.39999V7.99995H7.99999V11.52C9.75999 8.79995 12.64 7.19995 16 7.19995ZM8.31999 19.0399C9.27999 22.3999 12.48 24.7999 16 24.7999C18.88 24.7999 21.44 23.2 22.88 20.8H19.2V19.2H25.6V25.6H24V22.08C22.24 24.7999 19.36 26.4 16 26.4C11.68 26.4 7.99999 23.52 6.71999 19.36L8.31999 19.0399Z" fill="#182020"/>
</svg>
