<svg width="32" height="32" viewBox="0 0 32 32" fill="none" xmlns="http://www.w3.org/2000/svg">
<path d="M16 7.9999C14.24 7.9999 12.8 9.4399 12.8 11.1999C12.8 12.9599 14.24 14.3999 16 14.3999C17.76 14.3999 19.2 12.9599 19.2 11.1999C19.2 9.4399 17.76 7.9999 16 7.9999ZM16 6.3999C18.72 6.3999 20.8 8.4799 20.8 11.1999C20.8 13.9199 18.72 15.9999 16 15.9999C13.28 15.9999 11.2 13.9199 11.2 11.1999C11.2 8.4799 13.28 6.3999 16 6.3999ZM16 19.1999C10.72 19.1999 6.56 21.4399 6.4 23.8399V23.9999V25.5999H25.6V23.9999C25.6 21.5999 21.6 19.3599 16.48 19.1999H16ZM16 17.5999C22.08 17.5999 27.04 20.3199 27.2 23.6799V23.9999V27.1999H4.8V23.9999C4.8 20.4799 9.76 17.5999 16 17.5999Z" fill="#182020"/>
</svg>
